<?xml version="1.0" encoding="utf-8"?>
<!-- Generator: Adobe Illustrator 26.3.1, SVG Export Plug-In . SVG Version: 6.00 Build 0)  -->
<svg version="1.1" id="Capa_1" xmlns="http://www.w3.org/2000/svg" xmlns:xlink="http://www.w3.org/1999/xlink" x="0px" y="0px"
	 viewBox="0 0 516 354.86" style="enable-background:new 0 0 516 354.86;" xml:space="preserve">
<style type="text/css">
	.st0{fill:#009CDE;}
	.st1{fill:#0067B1;}
</style>
<g>
	<path class="st0" d="M10.61,30.55h97.8c74.66,0,90.09,63.55,90.09,105.51c0,47.51-18.82,116-91.94,116H10.61V30.55z M55.96,213.81
		h45.04c37.64,0,50.29-37.95,50.29-74.35c0-65.41-31.16-70.65-50.91-70.65H55.96V213.81z"/>
</g>
<g>
	<path class="st0" d="M320.13,30.55h97.8c74.66,0,90.09,63.55,90.09,105.51c0,47.51-18.82,116-91.94,116h-95.95V30.55z
		 M365.49,213.81h45.04c37.64,0,50.29-37.95,50.29-74.35c0-65.41-31.16-70.65-50.91-70.65h-44.43V213.81z"/>
</g>
<g>
	<path class="st1" d="M387.76,269.49H326.3l-17.82-22.19c-15.28,15.28-35.28,29.1-74.56,29.1c-49.83,0-81.47-35.28-81.47-74.2
		c0-25.1,6.91-49.83,50.19-76.02l5.46-3.27c-10.91-12.37-23.64-32.01-23.64-54.56c0-35.64,28.73-60.01,69.47-60.01
		c28.73,0,64.01,18.55,64.01,60.38c0,36.73-32.73,56.01-43.28,62.19l37.1,45.83c6.55-10.18,11.64-22.91,13.46-42.92h45.1
		c-3.27,35.28-12.37,55.65-29.82,78.56L387.76,269.49z M234.28,155.28c-21.46,15.64-30.92,22.91-30.92,43.65
		c0,10.18,8,34.55,38.55,34.55c16.73,0,31.64-10.18,40.37-18.19L234.28,155.28z M252.1,46.9c-11.27,0-21.1,7.27-21.1,21.1
		c0,8.73,6.55,19.28,18.91,32.73c13.82-8.73,24-18.91,24-32.37C273.92,53.81,264.47,46.9,252.1,46.9z"/>
</g>
<g>
	<path class="st0" d="M71.08,327.54H57.23v-6.77h-0.2c-3.44,6.06-9.7,8.18-15.56,8.18c-15.96,0-22.63-14.15-22.63-28.9
		c0-18.59,10.51-27.69,22.33-27.69c9.09,0,13.34,4.95,15.56,8.39h0.2v-25.77h14.15V327.54z M45.01,317.33
		c8.99,0,12.53-7.48,12.53-15.46c0-8.59-2.43-17.28-12.13-17.28c-8.99,0-12.02,7.98-12.02,16.47
		C33.39,307.43,35.91,317.33,45.01,317.33z"/>
	<path class="st0" d="M129.88,311.77c-3.74,12.93-14.45,17.18-23.64,17.18c-15.16,0-26.78-7.28-26.78-29.4
		c0-6.47,2.22-27.18,25.77-27.18c10.61,0,25.26,5.05,25.26,29.61v2.53H93.6c0.4,4.04,1.21,13.14,12.63,13.14
		c3.94,0,7.98-2.02,9.09-5.86H129.88z M115.94,295.3c-0.81-8.69-6.37-11.32-10.91-11.32c-6.67,0-10.21,4.24-11.01,11.32H115.94z"/>
	<path class="st0" d="M167.26,327.54h-14.85l-19.3-53.76h15.76l11.12,39.61h0.2l11.42-39.61h15.06L167.26,327.54z"/>
	<path class="st0" d="M240.72,311.77c-3.74,12.93-14.45,17.18-23.64,17.18c-15.16,0-26.78-7.28-26.78-29.4
		c0-6.47,2.22-27.18,25.77-27.18c10.61,0,25.26,5.05,25.26,29.61v2.53h-36.88c0.4,4.04,1.21,13.14,12.63,13.14
		c3.94,0,7.98-2.02,9.09-5.86H240.72z M226.77,295.3c-0.81-8.69-6.37-11.32-10.91-11.32c-6.67,0-10.21,4.24-11.01,11.32H226.77z"/>
	<path class="st0" d="M265.27,327.54h-14.15v-72.55h14.15V327.54z"/>
	<path class="st0" d="M303.16,328.95c-14.45,0-27.48-8.89-27.48-28.29c0-19.4,13.03-28.29,27.48-28.29s27.48,8.89,27.48,28.29
		C330.64,320.06,317.61,328.95,303.16,328.95z M303.16,284.29c-10.91,0-12.93,9.5-12.93,16.37c0,6.87,2.02,16.37,12.93,16.37
		c10.91,0,12.93-9.5,12.93-16.37C316.09,293.79,314.07,284.29,303.16,284.29z"/>
	<path class="st0" d="M353.78,281.56h0.2c2.63-4.24,6.57-9.19,16.07-9.19c11.82,0,22.33,9.09,22.33,27.69
		c0,14.75-6.67,28.9-22.63,28.9c-9.9,0-13.44-5.36-15.16-8.29h-0.2v27.79h-14.15v-74.67h13.54V281.56z M366.21,317.33
		c9.09,0,11.62-9.9,11.62-16.27c0-8.49-3.03-16.47-12.02-16.47c-9.7,0-12.02,8.69-12.02,17.28
		C353.78,309.85,357.21,317.33,366.21,317.33z"/>
	<path class="st0" d="M448.45,311.77c-3.74,12.93-14.45,17.18-23.64,17.18c-15.16,0-26.78-7.28-26.78-29.4
		c0-6.47,2.22-27.18,25.77-27.18c10.61,0,25.26,5.05,25.26,29.61v2.53h-36.88c0.4,4.04,1.21,13.14,12.63,13.14
		c3.94,0,7.98-2.02,9.09-5.86H448.45z M434.51,295.3c-0.81-8.69-6.37-11.32-10.91-11.32c-6.67,0-10.21,4.24-11.01,11.32H434.51z"/>
	<path class="st0" d="M458.35,273.78h13.54v9.3h0.2c2.93-5.46,6.16-10.71,14.75-10.71c0.91,0,1.82,0.1,2.73,0.2v14.35
		c-1.21-0.2-2.73-0.2-4.04-0.2c-11.01,0-13.03,6.87-13.03,12.83v27.99h-14.15V273.78z"/>
</g>
</svg>
