<?xml version="1.0" encoding="utf-8"?>
<!-- Generator: Adobe Illustrator 26.3.1, SVG Export Plug-In . SVG Version: 6.00 Build 0)  -->
<svg version="1.1" id="Capa_1" xmlns="http://www.w3.org/2000/svg" xmlns:xlink="http://www.w3.org/1999/xlink" x="0px" y="0px"
	 viewBox="0 0 1222.83 376.07" style="enable-background:new 0 0 1222.83 376.07;" xml:space="preserve">
<style type="text/css">
	.st0{fill:#DD286E;}
	.st1{opacity:0.1;fill:#FFFFFF;}
	.st2{fill:#E87245;}
	.st3{opacity:0.1;}
	.st4{fill:#FFFFFF;}
	.st5{fill:#54AA39;}
	.st6{fill:#009E9D;}
</style>
<g>
	<g>
		
			<rect x="102.13" y="125.07" transform="matrix(0.7071 -0.7071 0.7071 0.7071 -92.5602 191.018)" class="st0" width="164.34" height="164.34"/>
		<polygon class="st1" points="171.6,194.54 158.9,298.05 68.09,207.24 184.3,91.03 		"/>
		<g>
			<polygon class="st2" points="184.3,70.84 304.08,190.62 368.3,190.62 184.3,6.62 0.3,190.62 64.52,190.62 			"/>
		</g>
		<g class="st3">
			<g>
				<polygon class="st4" points="148.81,66.21 160.55,48.42 184.96,7.29 184.3,6.62 0.3,190.62 64.52,190.62 				"/>
			</g>
		</g>
	</g>
	<g>
		
			<rect x="240.78" y="212.51" transform="matrix(0.7071 -0.7071 0.7071 0.7071 -106.6193 297.3755)" class="st5" width="129.76" height="129.76"/>
		<polygon class="st1" points="295.63,267.36 285.6,349.09 213.9,277.39 305.65,185.64 		"/>
		<g>
			<g>
				<polygon class="st6" points="305.65,169.69 400.23,264.27 450.93,264.27 305.65,118.99 160.38,264.27 211.08,264.27 				"/>
			</g>
		</g>
		<g class="st3">
			<g>
				<polygon class="st4" points="277.63,166.04 286.9,151.99 306.18,119.51 305.65,118.99 160.38,264.27 211.08,264.27 				"/>
			</g>
		</g>
	</g>
</g>
<g>
	<path class="st6" d="M467.78,233.6h-25.84V101.59h32.82c8.34,0,14.91,0.45,19.72,1.36s8.69,2.36,11.65,4.35
		c5.44,3.69,9.72,8.55,12.83,14.6c3.11,6.04,4.67,12.51,4.67,19.4c0,12.63-4.17,22.73-12.51,30.28
		c-8.34,7.56-19.58,11.33-33.73,11.33h-9.61V233.6z M467.78,160.61h6.8c7.19,0,12.71-1.56,16.55-4.67
		c3.84-3.11,5.76-7.57,5.76-13.37c0-5.98-1.86-10.44-5.58-13.37c-3.72-2.93-9.35-4.4-16.91-4.4h-6.62V160.61z"/>
	<path class="st6" d="M559.54,101.59v43.61c3.38-4.53,7.27-7.89,11.65-10.06c4.38-2.18,9.38-3.26,15-3.26
		c12.45,0,22,3.82,28.65,11.47c6.65,7.65,9.97,18.66,9.97,33.05v57.21h-23.21v-43.97c0-13.66-1.53-22.92-4.58-27.79
		c-3.05-4.86-8.39-7.3-16-7.3c-7.74,0-13.3,2.74-16.68,8.21c-3.39,5.47-5.08,14.85-5.08,28.15v42.7h-22.39V101.59H559.54z"/>
	<path class="st6" d="M664.8,205.94l-10.25,27.65h-26.75l51.23-132.01h22.3l50.5,132.01h-27.65l-10.43-27.65H664.8z M705.24,181.46
		l-15.59-42.52l-15.96,42.52H705.24z"/>
	<path class="st6" d="M834.34,141.84v-40.25h22.85V233.6h-22.85v-8.16c-4.59,3.63-9.43,6.33-14.51,8.11s-10.58,2.67-16.5,2.67
		c-6.29,0-12.21-1-17.77-2.99c-5.56-1.99-10.55-4.9-14.96-8.7c-6.04-5.2-10.68-11.35-13.92-18.45c-3.23-7.1-4.85-14.64-4.85-22.62
		c0-7.37,1.5-14.45,4.49-21.22c2.99-6.77,7.21-12.63,12.65-17.59c4.53-4.29,9.73-7.55,15.59-9.79c5.86-2.24,12.12-3.35,18.77-3.35
		c6.41,0,12.09,0.83,17.04,2.49C825.34,135.66,829.99,138.28,834.34,141.84z M833.35,184.18c0-8.52-2.71-15.62-8.12-21.31
		c-5.41-5.68-12.16-8.52-20.26-8.52c-7.98,0-14.79,2.9-20.44,8.7c-5.65,5.8-8.48,12.72-8.48,20.76c0,8.4,2.84,15.4,8.52,20.99
		c5.68,5.59,12.84,8.39,21.49,8.39c7.62,0,14.07-2.81,19.36-8.43C830.7,199.14,833.35,192.28,833.35,184.18z"/>
	<path class="st6" d="M1001.08,140.76h-31.55c-3.75-5.08-8.21-8.89-13.37-11.42s-11.05-3.81-17.63-3.81c-5.32,0-10.37,1-15.14,2.99
		c-4.78,1.99-9.01,4.9-12.69,8.7c-3.93,3.99-6.97,8.6-9.11,13.83c-2.15,5.23-3.22,10.59-3.22,16.09c0,12.09,3.88,22.23,11.65,30.42
		c7.77,8.19,17.27,12.28,28.51,12.28c6.47,0,12.29-1.21,17.45-3.63c5.17-2.42,9.35-5.92,12.56-10.52h31.64
		c-6.17,13.48-14.39,23.6-24.66,30.37c-10.28,6.77-22.55,10.15-36.81,10.15c-9.91,0-19.06-1.9-27.43-5.71
		c-8.37-3.81-15.88-9.46-22.53-16.95c-5.62-6.22-9.88-13.31-12.78-21.26c-2.9-7.95-4.35-16.46-4.35-25.52
		c0-9.19,1.75-17.91,5.26-26.16c3.5-8.25,8.64-15.76,15.41-22.53c6.41-6.29,13.52-11.05,21.35-14.28
		c7.83-3.23,16.24-4.85,25.25-4.85c14.45,0,26.79,3.45,37.04,10.34C986.16,116.19,994.55,126.67,1001.08,140.76z"/>
	<path class="st6" d="M1009.96,183.28c0-7.01,1.28-13.67,3.85-19.99c2.57-6.32,6.3-11.92,11.2-16.82
		c5.02-5.02,10.67-8.87,16.95-11.56c6.29-2.69,12.81-4.03,19.58-4.03c7.19,0,13.83,1.19,19.9,3.58c6.07,2.39,11.65,5.97,16.73,10.74
		c5.2,5.02,9.22,10.8,12.06,17.36c2.84,6.56,4.26,13.28,4.26,20.17c0,7.62-1.24,14.57-3.72,20.85c-2.48,6.29-6.2,11.97-11.15,17.05
		c-4.96,5.14-10.61,9.02-16.95,11.65c-6.35,2.63-13.24,3.94-20.67,3.94c-7.5,0-14.33-1.33-20.49-3.99
		c-6.17-2.66-11.79-6.65-16.86-11.97c-4.84-5.2-8.49-10.93-10.97-17.18C1011.2,196.83,1009.96,190.23,1009.96,183.28z M1033.9,183.1
		c0,9.25,2.54,16.58,7.62,21.99c5.08,5.41,11.97,8.11,20.67,8.11c8.58,0,15.43-2.77,20.54-8.3c5.11-5.53,7.66-12.98,7.66-22.35
		c0-8.4-2.67-15.31-8.02-20.72c-5.35-5.41-12.07-8.11-20.17-8.11c-8.34,0-15.14,2.74-20.4,8.21
		C1036.53,167.4,1033.9,174.45,1033.9,183.1z"/>
	<path class="st6" d="M1151.85,133.87v11.33c3.38-4.53,7.27-7.89,11.65-10.06c4.38-2.18,9.38-3.26,15-3.26
		c7.19,0,13.46,1.36,18.81,4.08c5.35,2.72,9.81,6.8,13.37,12.24c2.3,3.63,3.94,7.75,4.94,12.38c1,4.62,1.5,11.38,1.5,20.26v52.77
		h-23.21v-44.15c0-13.36-1.54-22.51-4.62-27.47c-3.08-4.96-8.4-7.43-15.96-7.43c-7.74,0-13.3,2.74-16.68,8.21
		c-3.39,5.47-5.08,14.85-5.08,28.15v42.7h-22.39v-99.73H1151.85z"/>
</g>
<g>
	<path class="st6" d="M501.22,283.44h-3.61l13.51-34.81h4.11l13.46,34.81h-3.66l-4.16-10.93h-15.49L501.22,283.44z M519.68,269.39
		l-6.6-17.48l-6.5,17.48H519.68z"/>
	<path class="st6" d="M552.89,261.31v-5.86v-6.81h3.39v34.81h-3.39v-3.97c-1.18,1.47-2.65,2.61-4.4,3.43
		c-1.75,0.82-3.61,1.23-5.57,1.23c-3.79,0-6.99-1.34-9.59-4.02c-2.6-2.68-3.9-5.96-3.9-9.85c0-3.86,1.28-7.1,3.85-9.74
		c2.57-2.64,5.78-3.96,9.63-3.96c2.07,0,3.96,0.4,5.65,1.21C550.27,258.58,551.71,259.76,552.89,261.31z M552.98,270.56
		c0-3-0.99-5.55-2.98-7.67s-4.32-3.18-6.99-3.18c-2.77,0-5.15,1.01-7.12,3.02c-1.98,2.02-2.96,4.48-2.96,7.4
		c0,3.08,0.99,5.66,2.98,7.75c1.98,2.09,4.39,3.13,7.21,3.13c2.6,0,4.89-1.04,6.89-3.13C551.99,275.79,552.98,273.35,552.98,270.56z
		"/>
	<path class="st6" d="M582.27,261.26c1.07-1.51,2.39-2.67,3.98-3.45c1.59-0.79,3.36-1.18,5.32-1.18c3.57,0,6.17,1.07,7.79,3.22
		s2.44,5.59,2.44,10.34v13.27h-3.23v-13.96c0-3.47-0.57-5.95-1.72-7.42c-1.15-1.47-3.02-2.21-5.62-2.21c-1.5,0-2.82,0.31-3.96,0.92
		c-1.14,0.61-2.04,1.49-2.71,2.64c-0.4,0.72-0.69,1.53-0.86,2.45c-0.17,0.92-0.26,2.51-0.26,4.79v12.79h-3.18v-14.73
		c0-3.03-0.61-5.26-1.84-6.71c-1.23-1.44-3.11-2.16-5.64-2.16c-1.53,0-2.87,0.31-4.03,0.92c-1.16,0.61-2.07,1.49-2.74,2.64
		c-0.42,0.72-0.71,1.53-0.87,2.45c-0.17,0.92-0.25,2.51-0.25,4.79v12.79h-3.32v-26.3h3.32v2.99c1-1.16,2.19-2.04,3.55-2.63
		c1.36-0.59,2.91-0.88,4.63-0.88c1.99,0,3.81,0.42,5.45,1.25C580.16,258.71,581.41,259.84,582.27,261.26z"/>
	<path class="st6" d="M610.62,254.06h-3.37v-5.43h3.37V254.06z M607.25,283.44v-26.3h3.37v26.3H607.25z"/>
	<path class="st6" d="M616.07,257.15h3.28v2.99c1.04-1.2,2.24-2.08,3.6-2.65c1.36-0.57,2.92-0.86,4.67-0.86
		c1.93,0,3.65,0.36,5.15,1.08s2.7,1.75,3.57,3.08c0.61,0.94,1.04,2.04,1.3,3.31s0.39,3.14,0.39,5.61v13.75h-3.32v-14.73
		c0-3.11-0.59-5.36-1.78-6.77c-1.19-1.4-3.09-2.1-5.7-2.1c-1.53,0-2.87,0.31-4.03,0.92c-1.16,0.61-2.07,1.49-2.74,2.64
		c-0.42,0.72-0.71,1.53-0.87,2.45c-0.17,0.92-0.25,2.51-0.25,4.79v12.79h-3.28V257.15z"/>
	<path class="st6" d="M646.81,254.06h-3.37v-5.43h3.37V254.06z M643.44,283.44v-26.3h3.37v26.3H643.44z"/>
	<path class="st6" d="M650.59,275.17h3.47v0.1c0,1.64,0.47,3,1.41,4.08c0.94,1.08,2.1,1.61,3.49,1.61c1.32,0,2.42-0.41,3.3-1.24
		c0.88-0.83,1.32-1.87,1.32-3.13c0-1.26-0.35-2.27-1.04-3.04s-1.95-1.48-3.77-2.15c-2.92-1.04-4.82-2.1-5.71-3.18
		c-0.89-1.08-1.34-2.53-1.34-4.35c0-2.06,0.75-3.8,2.24-5.24c1.49-1.43,3.29-2.15,5.42-2.15c2.25,0,4.03,0.64,5.36,1.91
		c1.32,1.28,2.03,3.05,2.13,5.33h-3.61c-0.08-1.24-0.47-2.21-1.18-2.89c-0.71-0.69-1.68-1.03-2.9-1.03c-1.1,0-2.02,0.37-2.75,1.11
		c-0.73,0.74-1.1,1.66-1.1,2.76c0,0.78,0.15,1.44,0.45,1.97c0.3,0.53,0.8,1.02,1.51,1.45c0.64,0.4,1.57,0.78,2.79,1.15
		c1.22,0.37,2.04,0.64,2.45,0.81c1.64,0.7,2.85,1.63,3.62,2.8c0.77,1.16,1.16,2.65,1.16,4.45c0,2.26-0.79,4.14-2.37,5.62
		c-1.58,1.48-3.58,2.22-6,2.22c-2.47,0-4.46-0.81-5.95-2.43C651.46,280.09,650.67,277.91,650.59,275.17z"/>
	<path class="st6" d="M673.61,283.44v-22.9h-5v-3.39h5v-8.51h3.37v8.51h5v3.39h-5v22.9H673.61z"/>
	<path class="st6" d="M688.05,283.44h-3.42v-26.3h3.18v3.04c0.83-1.16,1.73-2.02,2.71-2.56c0.98-0.54,2.12-0.83,3.43-0.86l0.02,3.66
		c-2.12,0.19-3.64,0.82-4.55,1.9c-0.92,1.08-1.38,2.83-1.38,5.25V283.44z"/>
	<path class="st6" d="M719.13,279.28c-1.05,1.51-2.47,2.7-4.27,3.56s-3.73,1.29-5.8,1.29c-3.86,0-7.07-1.32-9.63-3.96
		c-2.57-2.64-3.85-5.89-3.85-9.77c0-3.94,1.31-7.23,3.93-9.87c2.62-2.65,5.9-3.97,9.84-3.97c2.02,0,3.88,0.41,5.57,1.23
		c1.69,0.82,3.09,2,4.21,3.55v-4.21h3.3v26.3h-3.3V279.28z M719.13,270.13c0-2.79-1-5.22-2.99-7.3c-1.99-2.08-4.29-3.12-6.89-3.12
		c-2.82,0-5.22,1.04-7.21,3.12s-2.98,4.66-2.98,7.73c0,2.93,0.99,5.41,2.96,7.42c1.98,2.02,4.35,3.02,7.12,3.02
		c2.68,0,5.01-1.06,6.99-3.19C718.14,275.69,719.13,273.12,719.13,270.13z"/>
	<path class="st6" d="M748.8,265.23c-1.04-1.91-2.3-3.33-3.79-4.24c-1.49-0.92-3.26-1.37-5.32-1.37c-2.71,0-5.01,1.03-6.9,3.08
		c-1.89,2.06-2.83,4.6-2.83,7.63c0,3.03,0.95,5.56,2.84,7.59c1.9,2.03,4.24,3.05,7.03,3.05c2.04,0,3.84-0.5,5.4-1.51
		c1.56-1,2.75-2.42,3.56-4.23h3.73c-1.02,2.85-2.62,5.06-4.8,6.62c-2.18,1.56-4.76,2.34-7.72,2.34c-3.81,0-7.02-1.35-9.65-4.05
		c-2.62-2.7-3.93-5.96-3.93-9.77c0-3.89,1.33-7.18,3.98-9.89c2.65-2.7,5.88-4.05,9.69-4.05c2.85,0,5.37,0.77,7.54,2.31
		s3.8,3.7,4.89,6.49H748.8z"/>
	<path class="st6" d="M760.85,254.06h-3.37v-5.43h3.37V254.06z M757.48,283.44v-26.3h3.37v26.3H757.48z"/>
	<path class="st6" d="M764.87,270.32c0-3.86,1.32-7.16,3.97-9.9s5.78-4.11,9.4-4.11c3.81,0,7.06,1.35,9.74,4.04s4.03,5.9,4.03,9.63
		c0,3.92-1.32,7.27-3.94,10.04c-2.63,2.77-5.82,4.16-9.56,4.16c-3.81,0-7.03-1.36-9.67-4.08S764.87,274.13,764.87,270.32z
		 M768.41,270.27c0,3.03,0.96,5.57,2.89,7.61c1.93,2.05,4.33,3.07,7.2,3.07c2.82,0,5.19-1.02,7.1-3.07c1.91-2.05,2.87-4.6,2.87-7.66
		c0-3.11-0.97-5.66-2.91-7.66s-4.39-3-7.38-3c-2.68,0-4.98,1.03-6.9,3.08C769.37,264.7,768.41,267.24,768.41,270.27z M777.9,253.63
		h-2.2l5-8.37h3.63L777.9,253.63z"/>
	<path class="st6" d="M795.97,257.15h3.28v2.99c1.04-1.2,2.24-2.08,3.6-2.65c1.36-0.57,2.92-0.86,4.67-0.86
		c1.93,0,3.65,0.36,5.15,1.08s2.7,1.75,3.57,3.08c0.61,0.94,1.04,2.04,1.3,3.31s0.39,3.14,0.39,5.61v13.75h-3.32v-14.73
		c0-3.11-0.59-5.36-1.78-6.77c-1.19-1.4-3.09-2.1-5.7-2.1c-1.53,0-2.87,0.31-4.03,0.92c-1.16,0.61-2.07,1.49-2.74,2.64
		c-0.42,0.72-0.71,1.53-0.87,2.45c-0.17,0.92-0.25,2.51-0.25,4.79v12.79h-3.28V257.15z"/>
	<path class="st6" d="M865.39,257.65c-1.56-2.17-3.31-3.76-5.24-4.78c-1.93-1.02-4.13-1.53-6.6-1.53c-3.87,0-7.18,1.43-9.93,4.3
		c-2.75,2.87-4.12,6.28-4.12,10.23c0,4.21,1.37,7.75,4.1,10.64c2.73,2.89,6.05,4.33,9.96,4.33c2.41,0,4.58-0.5,6.53-1.51
		c1.94-1,3.63-2.5,5.07-4.49h4.06c-1.59,2.96-3.73,5.26-6.41,6.87c-2.68,1.62-5.68,2.43-9.01,2.43c-5.12,0-9.38-1.75-12.8-5.24
		c-3.42-3.49-5.13-7.85-5.13-13.08c0-2.44,0.46-4.75,1.39-6.93s2.28-4.15,4.06-5.9c1.66-1.66,3.52-2.91,5.58-3.77
		c2.06-0.85,4.3-1.28,6.71-1.28c3.46,0,6.57,0.84,9.34,2.53c2.76,1.69,4.95,4.08,6.56,7.17H865.39z"/>
	<path class="st6" d="M872.49,270.32c0-3.86,1.32-7.16,3.97-9.9s5.78-4.11,9.4-4.11c3.81,0,7.06,1.35,9.74,4.04s4.03,5.9,4.03,9.63
		c0,3.92-1.32,7.27-3.94,10.04c-2.63,2.77-5.82,4.16-9.56,4.16c-3.81,0-7.03-1.36-9.67-4.08S872.49,274.13,872.49,270.32z
		 M876.03,270.27c0,3.03,0.96,5.57,2.89,7.61c1.93,2.05,4.33,3.07,7.2,3.07c2.82,0,5.19-1.02,7.1-3.07c1.91-2.05,2.87-4.6,2.87-7.66
		c0-3.11-0.97-5.66-2.91-7.66s-4.39-3-7.38-3c-2.68,0-4.98,1.03-6.9,3.08C876.99,264.7,876.03,267.24,876.03,270.27z"/>
	<path class="st6" d="M903.6,257.15h3.28v2.99c1.04-1.2,2.24-2.08,3.6-2.65c1.36-0.57,2.92-0.86,4.67-0.86
		c1.93,0,3.65,0.36,5.15,1.08s2.7,1.75,3.57,3.08c0.61,0.94,1.04,2.04,1.3,3.31s0.39,3.14,0.39,5.61v13.75h-3.32v-14.73
		c0-3.11-0.59-5.36-1.78-6.77c-1.19-1.4-3.09-2.1-5.7-2.1c-1.53,0-2.87,0.31-4.03,0.92c-1.16,0.61-2.07,1.49-2.74,2.64
		c-0.42,0.72-0.71,1.53-0.87,2.45c-0.17,0.92-0.25,2.51-0.25,4.79v12.79h-3.28V257.15z"/>
	<path class="st6" d="M933.22,283.44v-22.9h-5v-3.39h5v-8.51h3.37v8.51h5v3.39h-5v22.9H933.22z"/>
	<path class="st6" d="M966.5,279.28c-1.05,1.51-2.47,2.7-4.27,3.56s-3.73,1.29-5.8,1.29c-3.86,0-7.07-1.32-9.63-3.96
		c-2.57-2.64-3.85-5.89-3.85-9.77c0-3.94,1.31-7.23,3.93-9.87c2.62-2.65,5.9-3.97,9.84-3.97c2.02,0,3.88,0.41,5.57,1.23
		c1.69,0.82,3.09,2,4.21,3.55v-4.21h3.3v26.3h-3.3V279.28z M966.5,270.13c0-2.79-1-5.22-2.99-7.3c-1.99-2.08-4.29-3.12-6.89-3.12
		c-2.82,0-5.22,1.04-7.21,3.12s-2.98,4.66-2.98,7.73c0,2.93,0.99,5.41,2.96,7.42c1.98,2.02,4.35,3.02,7.12,3.02
		c2.68,0,5.01-1.06,6.99-3.19C965.5,275.69,966.5,273.12,966.5,270.13z"/>
	<path class="st6" d="M978.35,248.64v10.97v1.96c1.42-1.71,2.97-2.96,4.66-3.78c1.69-0.81,3.58-1.22,5.67-1.22
		c3.7,0,6.83,1.33,9.38,3.99c2.56,2.66,3.84,5.9,3.84,9.71c0,3.94-1.31,7.23-3.92,9.89c-2.61,2.65-5.9,3.98-9.85,3.98
		c-1.95,0-3.73-0.39-5.34-1.16c-1.62-0.77-3.1-1.94-4.43-3.5v3.97h-3.32v-34.81H978.35z M978.35,270.56c0,2.81,0.99,5.25,2.98,7.33
		c1.98,2.08,4.27,3.12,6.85,3.12c2.82,0,5.22-1.04,7.21-3.13c1.98-2.09,2.98-4.67,2.98-7.75c0-2.92-0.99-5.38-2.96-7.4
		c-1.98-2.02-4.34-3.02-7.1-3.02c-2.76,0-5.1,1.05-7.04,3.16C979.32,264.96,978.35,267.53,978.35,270.56z"/>
	<path class="st6" d="M1006.01,283.44v-34.81h3.37v34.81H1006.01z"/>
	<path class="st6" d="M1040.63,271.37h-23.74c0.21,2.86,1.24,5.17,3.11,6.94c1.87,1.76,4.19,2.65,6.98,2.65
		c1.98,0,3.75-0.51,5.33-1.54c1.58-1.02,2.8-2.45,3.66-4.27h3.83c-1.21,2.91-2.91,5.14-5.1,6.7c-2.19,1.56-4.73,2.34-7.61,2.34
		c-3.83,0-7.06-1.36-9.71-4.09c-2.65-2.73-3.97-6-3.97-9.83c0-4,1.29-7.31,3.89-9.92c2.59-2.61,5.9-3.92,9.93-3.92
		c3.95,0,7.18,1.36,9.67,4.08c2.49,2.72,3.74,6.26,3.74,10.61V271.37z M1036.9,268.43c-0.64-2.92-1.81-5.13-3.51-6.6
		s-3.93-2.22-6.67-2.22c-2.55,0-4.71,0.79-6.48,2.38c-1.77,1.59-2.85,3.73-3.25,6.44H1036.9z"/>
	<path class="st6" d="M1058.23,257.15h3.32v4.3c0.96-1.48,2.32-2.67,4.1-3.55c1.78-0.88,3.67-1.33,5.68-1.33
		c3.97,0,7.26,1.32,9.86,3.96s3.91,5.93,3.91,9.89c0,3.86-1.29,7.11-3.86,9.75c-2.57,2.65-5.79,3.97-9.65,3.97
		c-2.14,0-4.06-0.41-5.77-1.24c-1.71-0.83-3.14-2.03-4.27-3.61v1.82v3.92v6.93h-3.32V257.15z M1061.55,270.13
		c0,3,0.99,5.56,2.96,7.69c1.98,2.13,4.3,3.19,6.98,3.19c2.76,0,5.12-1.01,7.1-3.02c1.98-2.02,2.96-4.49,2.96-7.42
		c0-3.08-0.99-5.65-2.98-7.73c-1.98-2.08-4.39-3.12-7.21-3.12c-2.6,0-4.89,1.04-6.86,3.13
		C1062.54,264.92,1061.55,267.35,1061.55,270.13z"/>
	<path class="st6" d="M1111.37,279.28c-1.05,1.51-2.47,2.7-4.27,3.56s-3.73,1.29-5.8,1.29c-3.86,0-7.07-1.32-9.63-3.96
		c-2.57-2.64-3.85-5.89-3.85-9.77c0-3.94,1.31-7.23,3.93-9.87c2.62-2.65,5.9-3.97,9.84-3.97c2.02,0,3.88,0.41,5.57,1.23
		c1.69,0.82,3.09,2,4.21,3.55v-4.21h3.3v26.3h-3.3V279.28z M1111.37,270.13c0-2.79-1-5.22-2.99-7.3c-1.99-2.08-4.29-3.12-6.89-3.12
		c-2.82,0-5.22,1.04-7.21,3.12s-2.98,4.66-2.98,7.73c0,2.93,0.99,5.41,2.96,7.42c1.98,2.02,4.35,3.02,7.12,3.02
		c2.68,0,5.01-1.06,6.99-3.19C1110.38,275.69,1111.37,273.12,1111.37,270.13z"/>
	<path class="st6" d="M1123.37,283.44h-3.42v-26.3h3.18v3.04c0.83-1.16,1.73-2.02,2.71-2.56c0.98-0.54,2.12-0.83,3.43-0.86
		l0.02,3.66c-2.12,0.19-3.64,0.82-4.55,1.9c-0.92,1.08-1.38,2.83-1.38,5.25V283.44z"/>
	<path class="st6" d="M1154.45,279.28c-1.05,1.51-2.47,2.7-4.27,3.56s-3.73,1.29-5.8,1.29c-3.86,0-7.07-1.32-9.63-3.96
		c-2.57-2.64-3.85-5.89-3.85-9.77c0-3.94,1.31-7.23,3.93-9.87c2.62-2.65,5.9-3.97,9.84-3.97c2.02,0,3.88,0.41,5.57,1.23
		c1.69,0.82,3.09,2,4.21,3.55v-4.21h3.3v26.3h-3.3V279.28z M1154.45,270.13c0-2.79-1-5.22-2.99-7.3c-1.99-2.08-4.29-3.12-6.89-3.12
		c-2.82,0-5.22,1.04-7.21,3.12s-2.98,4.66-2.98,7.73c0,2.93,0.99,5.41,2.96,7.42c1.98,2.02,4.35,3.02,7.12,3.02
		c2.68,0,5.01-1.06,6.99-3.19C1153.46,275.69,1154.45,273.12,1154.45,270.13z"/>
	<path class="st6" d="M606.47,292.7h7.39c2.12,0,3.82,0.11,5.09,0.33c1.28,0.22,2.33,0.58,3.18,1.08c1.53,0.92,2.71,2.12,3.53,3.6
		c0.82,1.47,1.23,3.14,1.23,4.98c0,1.75-0.37,3.38-1.11,4.87s-1.77,2.67-3.1,3.55c-0.92,0.62-2.03,1.07-3.31,1.35
		c-1.28,0.28-2.92,0.42-4.91,0.42h-4.57v14.63h-3.42V292.7z M609.89,296.12v13.27h5.04c2.81,0,4.88-0.53,6.22-1.6
		c1.34-1.07,2.01-2.72,2.01-4.95c0-2.33-0.67-4.03-2.02-5.1s-3.51-1.61-6.49-1.61H609.89z"/>
	<path class="st6" d="M633.56,327.51h-3.42v-26.3h3.18v3.04c0.83-1.16,1.73-2.02,2.71-2.56c0.98-0.54,2.12-0.83,3.43-0.86l0.02,3.66
		c-2.12,0.19-3.64,0.82-4.55,1.9c-0.92,1.08-1.38,2.83-1.38,5.25V327.51z"/>
	<path class="st6" d="M640.99,314.38c0-3.86,1.32-7.16,3.97-9.9s5.78-4.11,9.4-4.11c3.81,0,7.06,1.35,9.74,4.04s4.03,5.9,4.03,9.63
		c0,3.92-1.32,7.27-3.94,10.04c-2.63,2.77-5.82,4.16-9.56,4.16c-3.81,0-7.03-1.36-9.67-4.08S640.99,318.19,640.99,314.38z
		 M644.53,314.33c0,3.03,0.96,5.57,2.89,7.61c1.93,2.05,4.33,3.07,7.2,3.07c2.82,0,5.19-1.02,7.1-3.07c1.91-2.05,2.87-4.6,2.87-7.66
		c0-3.11-0.97-5.66-2.91-7.66s-4.39-3-7.38-3c-2.68,0-4.98,1.03-6.9,3.08C645.49,308.76,644.53,311.3,644.53,314.33z"/>
	<path class="st6" d="M672,301.21h3.32v4.3c0.96-1.48,2.32-2.67,4.1-3.55c1.78-0.88,3.67-1.33,5.68-1.33c3.97,0,7.26,1.32,9.86,3.96
		s3.91,5.93,3.91,9.89c0,3.86-1.29,7.11-3.86,9.75c-2.57,2.65-5.79,3.97-9.65,3.97c-2.14,0-4.06-0.41-5.77-1.24
		c-1.71-0.83-3.14-2.03-4.27-3.61v1.82v3.92v6.93H672V301.21z M675.32,314.19c0,3,0.99,5.56,2.96,7.69c1.98,2.13,4.3,3.19,6.98,3.19
		c2.76,0,5.12-1.01,7.1-3.02c1.98-2.02,2.96-4.49,2.96-7.42c0-3.08-0.99-5.65-2.98-7.73c-1.98-2.08-4.39-3.12-7.21-3.12
		c-2.6,0-4.89,1.04-6.86,3.13C676.31,308.99,675.32,311.42,675.32,314.19z"/>
	<path class="st6" d="M706.35,298.12h-3.37v-5.43h3.37V298.12z M702.98,327.51v-26.3h3.37v26.3H702.98z"/>
	<path class="st6" d="M737.6,315.43h-23.74c0.21,2.86,1.24,5.17,3.11,6.94c1.87,1.76,4.19,2.65,6.98,2.65
		c1.98,0,3.75-0.51,5.33-1.54c1.58-1.02,2.8-2.45,3.66-4.27h3.83c-1.21,2.91-2.91,5.14-5.1,6.7c-2.19,1.56-4.73,2.34-7.61,2.34
		c-3.83,0-7.06-1.36-9.71-4.09c-2.65-2.73-3.97-6-3.97-9.83c0-4,1.29-7.31,3.89-9.92c2.59-2.61,5.9-3.92,9.93-3.92
		c3.95,0,7.18,1.36,9.67,4.08c2.49,2.72,3.74,6.26,3.74,10.61V315.43z M733.87,312.49c-0.64-2.92-1.81-5.13-3.51-6.6
		s-3.93-2.22-6.67-2.22c-2.55,0-4.71,0.79-6.48,2.38c-1.77,1.59-2.85,3.73-3.25,6.44H733.87z"/>
	<path class="st6" d="M763.59,305.37v-5.86v-6.81h3.39v34.81h-3.39v-3.97c-1.18,1.47-2.65,2.61-4.4,3.43
		c-1.75,0.82-3.61,1.23-5.57,1.23c-3.79,0-6.99-1.34-9.59-4.02c-2.6-2.68-3.9-5.96-3.9-9.85c0-3.86,1.28-7.1,3.85-9.74
		c2.57-2.64,5.78-3.96,9.63-3.96c2.07,0,3.96,0.4,5.65,1.21C760.97,302.65,762.41,303.82,763.59,305.37z M763.68,314.62
		c0-3-0.99-5.55-2.98-7.67s-4.32-3.18-6.99-3.18c-2.77,0-5.15,1.01-7.12,3.02c-1.98,2.02-2.96,4.48-2.96,7.4
		c0,3.08,0.99,5.66,2.98,7.75c1.98,2.09,4.39,3.13,7.21,3.13c2.6,0,4.89-1.04,6.89-3.13C762.69,319.85,763.68,317.41,763.68,314.62z
		"/>
	<path class="st6" d="M794.52,323.35c-1.05,1.51-2.47,2.7-4.27,3.56s-3.73,1.29-5.8,1.29c-3.86,0-7.07-1.32-9.63-3.96
		c-2.57-2.64-3.85-5.89-3.85-9.77c0-3.94,1.31-7.23,3.93-9.87c2.62-2.65,5.9-3.97,9.84-3.97c2.02,0,3.88,0.41,5.57,1.23
		c1.69,0.82,3.09,2,4.21,3.55v-4.21h3.3v26.3h-3.3V323.35z M794.52,314.19c0-2.79-1-5.22-2.99-7.3c-1.99-2.08-4.29-3.12-6.89-3.12
		c-2.82,0-5.22,1.04-7.21,3.12s-2.98,4.66-2.98,7.73c0,2.93,0.99,5.41,2.96,7.42c1.98,2.02,4.35,3.02,7.12,3.02
		c2.68,0,5.01-1.06,6.99-3.19C793.53,319.75,794.52,317.19,794.52,314.19z"/>
	<path class="st6" d="M825.27,305.37v-5.86v-6.81h3.39v34.81h-3.39v-3.97c-1.18,1.47-2.65,2.61-4.4,3.43
		c-1.75,0.82-3.61,1.23-5.57,1.23c-3.79,0-6.99-1.34-9.59-4.02c-2.6-2.68-3.9-5.96-3.9-9.85c0-3.86,1.28-7.1,3.85-9.74
		c2.57-2.64,5.78-3.96,9.63-3.96c2.07,0,3.96,0.4,5.65,1.21C822.65,302.65,824.09,303.82,825.27,305.37z M825.36,314.62
		c0-3-0.99-5.55-2.98-7.67s-4.32-3.18-6.99-3.18c-2.77,0-5.15,1.01-7.12,3.02c-1.98,2.02-2.96,4.48-2.96,7.4
		c0,3.08,0.99,5.66,2.98,7.75c1.98,2.09,4.39,3.13,7.21,3.13c2.6,0,4.89-1.04,6.89-3.13C824.37,319.85,825.36,317.41,825.36,314.62z
		"/>
	<path class="st6" d="M851.78,327.51h-3.44V292.7h3.44v15.61h16.54V292.7h3.42v34.81h-3.42v-15.87h-16.54V327.51z"/>
	<path class="st6" d="M876.28,314.38c0-3.86,1.32-7.16,3.97-9.9s5.78-4.11,9.4-4.11c3.81,0,7.06,1.35,9.74,4.04s4.03,5.9,4.03,9.63
		c0,3.92-1.32,7.27-3.94,10.04c-2.63,2.77-5.82,4.16-9.56,4.16c-3.81,0-7.03-1.36-9.67-4.08S876.28,318.19,876.28,314.38z
		 M879.82,314.33c0,3.03,0.96,5.57,2.89,7.61c1.93,2.05,4.33,3.07,7.2,3.07c2.82,0,5.19-1.02,7.1-3.07c1.91-2.05,2.87-4.6,2.87-7.66
		c0-3.11-0.97-5.66-2.91-7.66s-4.39-3-7.38-3c-2.68,0-4.98,1.03-6.9,3.08C880.78,308.76,879.82,311.3,879.82,314.33z"/>
	<path class="st6" d="M910.76,327.51h-3.42v-26.3h3.18v3.04c0.83-1.16,1.73-2.02,2.71-2.56c0.98-0.54,2.12-0.83,3.43-0.86l0.02,3.66
		c-2.12,0.19-3.64,0.82-4.55,1.9c-0.92,1.08-1.38,2.83-1.38,5.25V327.51z"/>
	<path class="st6" d="M923.05,298.12h-3.37v-5.43h3.37V298.12z M919.67,327.51v-26.3h3.37v26.3H919.67z"/>
	<path class="st6" d="M944.44,327.51h-18.17v-3.18l13.72-19.94H927.8v-3.18h15.92v3.63l-13.44,19.29h14.15V327.51z"/>
	<path class="st6" d="M946.78,314.38c0-3.86,1.32-7.16,3.97-9.9s5.78-4.11,9.4-4.11c3.81,0,7.06,1.35,9.74,4.04s4.03,5.9,4.03,9.63
		c0,3.92-1.32,7.27-3.94,10.04c-2.63,2.77-5.82,4.16-9.56,4.16c-3.81,0-7.03-1.36-9.67-4.08S946.78,318.19,946.78,314.38z
		 M950.32,314.33c0,3.03,0.96,5.57,2.89,7.61c1.93,2.05,4.33,3.07,7.2,3.07c2.82,0,5.19-1.02,7.1-3.07c1.91-2.05,2.87-4.6,2.87-7.66
		c0-3.11-0.97-5.66-2.91-7.66s-4.39-3-7.38-3c-2.68,0-4.98,1.03-6.9,3.08C951.28,308.76,950.32,311.3,950.32,314.33z"/>
	<path class="st6" d="M977.89,301.21h3.28v2.99c1.04-1.2,2.24-2.08,3.6-2.65c1.36-0.57,2.92-0.86,4.67-0.86
		c1.93,0,3.65,0.36,5.15,1.08s2.7,1.75,3.57,3.08c0.61,0.94,1.04,2.04,1.3,3.31s0.39,3.14,0.39,5.61v13.75h-3.32v-14.73
		c0-3.11-0.59-5.36-1.78-6.77c-1.19-1.4-3.09-2.1-5.7-2.1c-1.53,0-2.87,0.31-4.03,0.92c-1.16,0.61-2.07,1.49-2.74,2.64
		c-0.42,0.72-0.71,1.53-0.87,2.45c-0.17,0.92-0.25,2.51-0.25,4.79v12.79h-3.28V301.21z"/>
	<path class="st6" d="M1007.51,327.51v-22.9h-5v-3.39h5v-8.51h3.37v8.51h5v3.39h-5v22.9H1007.51z"/>
	<path class="st6" d="M1040.79,323.35c-1.05,1.51-2.47,2.7-4.27,3.56s-3.73,1.29-5.8,1.29c-3.86,0-7.07-1.32-9.63-3.96
		c-2.57-2.64-3.85-5.89-3.85-9.77c0-3.94,1.31-7.23,3.93-9.87c2.62-2.65,5.9-3.97,9.84-3.97c2.02,0,3.88,0.41,5.57,1.23
		c1.69,0.82,3.09,2,4.21,3.55v-4.21h3.3v26.3h-3.3V323.35z M1040.79,314.19c0-2.79-1-5.22-2.99-7.3c-1.99-2.08-4.29-3.12-6.89-3.12
		c-2.82,0-5.22,1.04-7.21,3.12c-1.98,2.08-2.98,4.66-2.98,7.73c0,2.93,0.99,5.41,2.96,7.42c1.98,2.02,4.35,3.02,7.12,3.02
		c2.68,0,5.01-1.06,6.99-3.19C1039.79,319.75,1040.79,317.19,1040.79,314.19z"/>
	<path class="st6" d="M1049.46,327.51V292.7h3.37v34.81H1049.46z"/>
</g>
</svg>
