<?xml version="1.0" encoding="utf-8"?>
<!-- Generator: Adobe Illustrator 26.3.1, SVG Export Plug-In . SVG Version: 6.00 Build 0)  -->
<svg version="1.1" xmlns="http://www.w3.org/2000/svg" xmlns:xlink="http://www.w3.org/1999/xlink" x="0px" y="0px"
	 viewBox="0 0 2954.57 3005.43" style="enable-background:new 0 0 2954.57 3005.43;" xml:space="preserve">
<style type="text/css">
	.st0{fill:url(#SVGID_1_);}
	.st1{fill:#BDD0FB;}
	.st2{opacity:0.5;fill:#FFFFFF;}
	.st3{fill:#91B3FA;}
	.st4{opacity:0.6;fill:#FFFFFF;}
	.st5{fill:#FFFFFF;}
	.st6{opacity:0.9;}
	.st7{fill-rule:evenodd;clip-rule:evenodd;fill:#FFFFFF;}
	.st8{fill:url(#SVGID_00000038411166953132073820000016502584902368555951_);}
	.st9{fill:url(#SVGID_00000007429391124216090570000015866510172198377401_);}
	.st10{fill:url(#SVGID_00000030463801897027018560000002260567852770290108_);}
	.st11{fill:url(#SVGID_00000117655544593898583940000010578111619554223257_);}
	.st12{fill:url(#SVGID_00000081646306909178106490000004040211694517708215_);}
	.st13{fill:url(#SVGID_00000078732535316851254840000015456989766852107680_);}
	.st14{fill:url(#SVGID_00000106142326621997686500000010434152418230053544_);}
	.st15{fill:url(#SVGID_00000123411893789437109420000017308144453569707690_);}
	.st16{filter:url(#Adobe_OpacityMaskFilter);}
	.st17{filter:url(#Adobe_OpacityMaskFilter_00000137842045980636906920000003014851380290355367_);}
	
		.st18{mask:url(#SVGID_00000180343499634806717180000006654814632919013524_);fill:url(#SVGID_00000031890818218811062390000011033610238694955668_);}
	.st19{fill:url(#SVGID_00000145058066789422606000000007727266227902312366_);}
	.st20{fill:url(#SVGID_00000065772333367111887610000006376103634124693946_);}
	.st21{fill:url(#SVGID_00000111887450789655365730000009167065345808228992_);}
	.st22{fill:url(#SVGID_00000021797488370354695160000008988370307998213306_);}
	.st23{fill:url(#SVGID_00000007403166829189154790000001637433852759065005_);}
	.st24{fill:url(#SVGID_00000145742732711333923060000008703444294400507046_);}
	.st25{fill:url(#SVGID_00000085236777960777141390000017595364944107809177_);}
	.st26{fill:url(#SVGID_00000068678132688380947380000013477620745624680631_);}
	.st27{fill:url(#SVGID_00000093144173649135565710000009798598218808291760_);}
	.st28{fill:url(#SVGID_00000180363585676805312220000006776757772737115062_);}
	.st29{fill:url(#SVGID_00000113352408210262262570000014308051070429908392_);}
	.st30{fill:url(#SVGID_00000014605621309885157320000001799532687467622295_);}
	.st31{fill:url(#SVGID_00000010289567672556943260000015598588411415997587_);}
	.st32{fill:url(#SVGID_00000043437459532163395250000000757661202762291079_);}
	.st33{fill:url(#SVGID_00000070093541284504245220000008413484167782848406_);}
	.st34{fill:url(#SVGID_00000132793648697269911720000012160337154251209379_);}
	.st35{fill:url(#SVGID_00000062895275177406527010000003486554888024952740_);}
	.st36{fill:url(#SVGID_00000122711556750551472020000004628135255012482221_);}
	.st37{fill:url(#SVGID_00000167392166512154108620000002160731439698322819_);}
	.st38{fill:url(#SVGID_00000153662831302936309760000009186578010013507971_);}
</style>
<g id="Background">
</g>
<g id="Illustration">
	<g>
		<linearGradient id="SVGID_1_" gradientUnits="userSpaceOnUse" x1="3151.781" y1="3654.0029" x2="711.9188" y2="623.8468">
			<stop  offset="0" style="stop-color:#DAE3FE"/>
			<stop  offset="1" style="stop-color:#E9EFFD"/>
		</linearGradient>
		<path class="st0" d="M2480.56,2459.02c-56.04,59-109.07,97.05-150.97,127.11c-492.47,353.36-1075.2,250.35-1199.05,225.2
			c-182.88-37.14-536.39-108.94-791.97-409.5C-48.09,1947.11,12.12,1230.72,312.04,757.82c54.86-86.5,344.66-566.61,933.66-643.6
			c356.46-46.6,771.98,47.38,1072.88,299.48C2950.22,942.88,2905.25,2011.92,2480.56,2459.02z"/>
		<g>
			<path class="st1" d="M58.83,908.47c-4.3-8.43,6.82-17.47,16.07-13.12c93.87,44.22,328.63,188.04,363.42,531.67
				c43.65,431.15,181.55,558.48,329.48,620.46c0,0-182.56-1.37-328.61-129.07C80.62,1604.87,135.32,1058.37,58.83,908.47z"/>
			<path class="st2" d="M150.39,1023.97c21.2,43.98,41.36,88.37,59.6,133.45c18.51,44.97,35.41,90.51,50.64,136.55
				c15.02,46.09,29.03,92.49,40.73,139.47c11.94,46.92,21.54,94.38,30.98,142.07c9.74,47.6,19.25,95.61,34.45,142.58
				c15.13,46.89,37.01,92.56,68.03,132.78c7.75,10.02,15.74,19.95,24.36,29.32c8.41,9.53,17.33,18.7,26.44,27.72
				c18.34,17.95,38.16,34.78,59.41,50.16c42.61,30.65,90.95,55.25,142.05,73.56c5.38,1.93,11.82-0.45,14.39-5.32
				c2.52-4.78,0.37-10.17-4.8-12.19l-0.04-0.01c-12.26-4.77-24.43-9.67-36.28-15.04c-5.98-2.6-11.8-5.43-17.68-8.17
				c-5.74-2.93-11.63-5.66-17.25-8.76c-22.74-12.02-44.38-25.49-64.67-40.36c-40.71-29.54-76.18-64.89-105.9-103.26
				c-14.61-19.36-27.49-39.73-38.47-61c-10.96-21.29-20.01-43.46-27.6-66.19c-15.17-45.49-25.03-92.92-35.17-140.43
				c-10.21-47.5-20.85-95.16-33.74-142.21c-6.37-23.55-13.23-46.96-20.57-70.22c-3.59-11.66-7.45-23.23-11.28-34.81
				c-3.96-11.54-7.99-23.06-12.14-34.54c-16.67-45.89-34.96-91.21-54.9-135.86c-20.19-44.55-41.76-88.54-65.29-131.6
				c-0.67-1.23-2.39-1.68-3.84-1C150.44,1021.28,149.81,1022.76,150.39,1023.97z"/>
		</g>
		<g>
			<g>
				<path class="st3" d="M487.25,1624.65c-7.09,12.54-24.69,13.76-33.59,2.44c-49.14-62.49-172.1-251.73-111.68-519.43
					c51.02-226.06,57.21-353.49,56.01-411.53c-0.25-12.27,15.31-17.74,22.8-8.01C503.45,795.39,744.26,1170.23,487.25,1624.65z"/>
				<path class="st2" d="M467.99,1621.51c-0.33,0.15-0.67,0.26-1.03,0.34c-3.03,0.7-6.05-1.2-6.74-4.22
					c-0.79-3.43-78.17-346.87-21.42-664.4c0.55-3.06,3.47-5.09,6.53-4.55c3.06,0.55,5.09,3.47,4.55,6.53
					c-56.33,315.22,20.53,656.49,21.31,659.9C471.79,1617.78,470.4,1620.44,467.99,1621.51z"/>
			</g>
		</g>
		<g>
			<g>
				<path class="st3" d="M2100.14,2532.49H563.63V334.75c0-77.3,58.71-139.21,129.51-136.56l1451.08,21.62
					c74,1.1,132.88,68.03,130.87,148.76l-50.63,2031.9C2222.63,2473.96,2167.51,2532.49,2100.14,2532.49z"/>
				<path class="st4" d="M2072.81,2199.09H587.5V370.68c0-64.31,56.76-115.82,125.2-113.61l1402.72,17.99
					c71.54,0.92,128.46,56.6,126.51,123.76l-48.94,1690.44C2191.21,2150.39,2137.93,2199.09,2072.81,2199.09z"/>
				<path class="st3" d="M589.52,401.08l1657.41,12.95v-79.61c-2.22-33.12-34.83-77.42-85.51-77.42L664.93,238.22
					c-35.67-0.4-77.82,49.58-77.12,87.9L589.52,401.08z"/>
				
					<ellipse transform="matrix(0.7071 -0.7071 0.7071 0.7071 -28.165 565.907)" class="st4" cx="669.03" cy="316.95" rx="23.15" ry="23.15"/>
				
					<ellipse transform="matrix(0.7071 -0.7071 0.7071 0.7071 -2.9319 632.1726)" class="st4" cx="761.63" cy="319.63" rx="23.15" ry="23.15"/>
				
					<ellipse transform="matrix(0.2298 -0.9732 0.9732 0.2298 344.0106 1073.9268)" class="st4" cx="850.49" cy="319.63" rx="23.15" ry="23.15"/>
			</g>
			<g>
				<g>
					<path class="st3" d="M1275.9,865.68H686.98c-4.19,0-7.59-3.4-7.59-7.59V493.11c0-4.19,3.4-7.59,7.59-7.59h588.92
						c4.19,0,7.59,3.4,7.59,7.59v364.98C1283.49,862.28,1280.09,865.68,1275.9,865.68z"/>
					<path class="st5" d="M1237.44,850.2H725.43c-15.05,0-27.29-12.24-27.29-27.29V528.98c0-15.05,12.24-27.29,27.29-27.29h512.01
						c15.05,0,27.29,12.24,27.29,27.29v293.93C1264.73,837.96,1252.49,850.2,1237.44,850.2z M725.43,505.07
						c-13.19,0-23.92,10.73-23.92,23.92v293.93c0,13.19,10.73,23.92,23.92,23.92h512.01c13.19,0,23.92-10.73,23.92-23.92V528.98
						c0-13.19-10.73-23.92-23.92-23.92H725.43z"/>
					<path class="st5" d="M782.39,807.19h303.64c9.45,0,15.33-10.27,10.53-18.42L976.35,584.42c-5.01-8.52-17.55-7.87-21.65,1.12
						l-58.04,127.18c-3.45,7.55-13.26,9.54-19.38,3.93l-23.48-21.52c-5.45-5-14.07-4.04-18.29,2.03L772.35,788
						C766.72,796.1,772.52,807.19,782.39,807.19z"/>
					
						<ellipse transform="matrix(0.9239 -0.3827 0.3827 0.9239 -138.9323 458.043)" class="st5" cx="1081.9" cy="578.25" rx="43.65" ry="43.65"/>
				</g>
				<g>
					<path class="st3" d="M1274.24,1313.11H688.63c-5.11,0-9.24-4.14-9.24-9.24V942.18c0-5.11,4.14-9.24,9.24-9.24h585.62
						c5.11,0,9.24,4.14,9.24,9.24v361.68C1283.49,1308.97,1279.35,1313.11,1274.24,1313.11z"/>
					<path class="st5" d="M796.95,1254.44h303.64c9.45,0,15.33-10.27,10.53-18.42l-120.21-204.35c-5.01-8.52-17.55-7.87-21.65,1.12
						l-58.04,127.18c-3.45,7.55-13.26,9.54-19.38,3.93l-23.48-21.52c-5.45-5-14.07-4.04-18.29,2.03l-63.16,90.82
						C781.28,1243.35,787.08,1254.44,796.95,1254.44z"/>
					
						<ellipse transform="matrix(0.9239 -0.3827 0.3827 0.9239 -308.9781 497.6597)" class="st5" cx="1096.46" cy="1025.5" rx="43.65" ry="43.65"/>
					<path class="st5" d="M1237.01,1300.53H725c-15.05,0-27.29-12.24-27.29-27.29V979.31c0-15.05,12.24-27.29,27.29-27.29h512.02
						c15.05,0,27.29,12.24,27.29,27.29v293.93C1264.3,1288.28,1252.06,1300.53,1237.01,1300.53z M725,955.39
						c-13.19,0-23.92,10.73-23.92,23.92v293.93c0,13.19,10.73,23.92,23.92,23.92h512.02c13.19,0,23.92-10.73,23.92-23.92V979.31
						c0-13.19-10.73-23.92-23.92-23.92H725z"/>
				</g>
				<g>
					<path class="st3" d="M2133.59,933.04h-695.95c-4.19,0-7.59-3.4-7.59-7.59V493.11c0-4.19,3.4-7.59,7.59-7.59h695.95
						c4.19,0,7.59,3.4,7.59,7.59v432.34C2141.18,929.64,2137.78,933.04,2133.59,933.04z"/>
					<path class="st5" d="M2091.52,914.51h-611.8c-15.05,0-27.29-12.24-27.29-27.29V532.15c0-15.05,12.24-27.29,27.29-27.29h611.8
						c15.05,0,27.29,12.24,27.29,27.29v355.07C2118.8,902.27,2106.56,914.51,2091.52,914.51z M1479.72,508.23
						c-13.19,0-23.92,10.73-23.92,23.92v355.07c0,13.19,10.73,23.92,23.92,23.92h611.8c13.19,0,23.92-10.73,23.92-23.92V532.15
						c0-13.19-10.73-23.92-23.92-23.92H1479.72z"/>
					<g class="st6">
						<path class="st5" d="M1781.18,833.78c-69.63,0-126.27-56.65-126.27-126.27s56.65-126.27,126.27-126.27
							c69.63,0,126.27,56.65,126.27,126.27S1850.81,833.78,1781.18,833.78z M1781.18,602.39c-57.96,0-105.11,47.15-105.11,105.11
							c0,57.96,47.15,105.11,105.11,105.11c57.96,0,105.11-47.15,105.11-105.11C1886.29,649.54,1839.14,602.39,1781.18,602.39z"/>
						<path class="st7" d="M1741.62,756.13v-90.78c0-9.7,10.56-15.71,18.9-10.76l76.5,45.39c8.17,4.85,8.17,16.68,0,21.53
							l-76.5,45.39C1752.18,771.85,1741.62,765.83,1741.62,756.13z"/>
					</g>
				</g>
				<g>
					<path class="st3" d="M2129.15,1456.41H1433.2c-4.19,0-7.59-3.4-7.59-7.59v-432.34c0-4.19,3.4-7.59,7.59-7.59h695.95
						c4.19,0,7.59,3.4,7.59,7.59v432.34C2136.75,1453.01,2133.35,1456.41,2129.15,1456.41z"/>
					<path class="st5" d="M2087.08,1437.88h-611.8c-15.05,0-27.29-12.24-27.29-27.29v-355.07c0-15.05,12.24-27.29,27.29-27.29h611.8
						c15.05,0,27.29,12.24,27.29,27.29v355.07C2114.36,1425.64,2102.12,1437.88,2087.08,1437.88z M1475.28,1031.6
						c-13.19,0-23.92,10.73-23.92,23.92v355.07c0,13.19,10.73,23.92,23.92,23.92h611.8c13.19,0,23.92-10.73,23.92-23.92v-355.07
						c0-13.19-10.73-23.92-23.92-23.92H1475.28z"/>
					<g class="st6">
						<path class="st5" d="M1776.74,1357.15c-69.63,0-126.28-56.65-126.28-126.27c0-69.63,56.65-126.27,126.28-126.27
							c69.63,0,126.27,56.65,126.27,126.27C1903.01,1300.5,1846.37,1357.15,1776.74,1357.15z M1776.74,1125.76
							c-57.96,0-105.11,47.15-105.11,105.11s47.15,105.11,105.11,105.11c57.96,0,105.11-47.15,105.11-105.11
							S1834.7,1125.76,1776.74,1125.76z"/>
						<path class="st7" d="M1737.18,1279.5v-90.78c0-9.7,10.56-15.71,18.9-10.76l76.5,45.39c8.17,4.85,8.17,16.68,0,21.53
							l-76.5,45.39C1747.74,1295.21,1737.18,1289.2,1737.18,1279.5z"/>
					</g>
				</g>
			</g>
		</g>
		<g>
			
				<linearGradient id="SVGID_00000166639185326266488820000002426107093094374065_" gradientUnits="userSpaceOnUse" x1="1265.2972" y1="2847.9756" x2="1288.7017" y2="1998.7188">
				<stop  offset="0" style="stop-color:#4F52FF"/>
				<stop  offset="1" style="stop-color:#4042E2"/>
			</linearGradient>
			<path style="fill:url(#SVGID_00000166639185326266488820000002426107093094374065_);" d="M331.12,2071.28l20.13,625.94
				c3.51,109.15,93.08,196.01,202.8,196.65l1498.92,8.83c73.33,0.43,135.8-52.85,146.5-125.05
				c23.44-158.07,53.3-440.91,19.67-706.38H331.12z"/>
			<path class="st5" d="M1999.87,2864.26c0,0-0.01,0-0.01,0l-10.92-0.06c-1.01-0.01-1.81-0.82-1.81-1.83c0.01-1,0.82-1.81,1.82-1.81
				c0,0,0.01,0,0.01,0l10.92,0.06c1,0.01,1.81,0.83,1.81,1.83C2001.69,2863.45,2000.87,2864.26,1999.87,2864.26z M2025.34,2864.08
				c-0.95,0-1.75-0.74-1.81-1.71c-0.06-1,0.7-1.87,1.7-1.93c3.57-0.22,7.17-0.58,10.72-1.08c0.98-0.16,1.91,0.55,2.05,1.55
				c0.14,1-0.55,1.91-1.55,2.05c-3.64,0.51-7.34,0.88-11,1.11C2025.41,2864.08,2025.38,2864.08,2025.34,2864.08z M1963.48,2864.04
				c0,0-0.01,0-0.01,0l-10.92-0.07c-1.01-0.01-1.81-0.83-1.81-1.83c0.01-1,0.82-1.81,1.82-1.81c0,0,0.01,0,0.01,0l10.92,0.07
				c1.01,0.01,1.81,0.83,1.81,1.83C1965.29,2863.24,1964.48,2864.04,1963.48,2864.04z M1927.08,2863.83c0,0-0.01,0-0.01,0
				l-10.92-0.06c-1.01-0.01-1.81-0.83-1.81-1.83c0.01-1,0.82-1.81,1.82-1.81c0,0,0.01,0,0.01,0l10.92,0.06
				c1,0.01,1.81,0.82,1.81,1.83C1928.9,2863.02,1928.09,2863.83,1927.08,2863.83z M1890.69,2863.61c0,0-0.01,0-0.01,0l-10.92-0.06
				c-1.01-0.01-1.81-0.82-1.81-1.83c0.01-1,0.97-1.76,1.83-1.81l10.92,0.06c1,0.01,1.81,0.83,1.81,1.83
				C1892.5,2862.8,1891.69,2863.61,1890.69,2863.61z M1854.3,2863.4c0,0-0.01,0-0.01,0l-10.92-0.07c-1.01-0.01-1.81-0.83-1.81-1.83
				c0.01-1,0.82-1.81,1.82-1.81c0,0,0.01,0,0.01,0l10.92,0.07c1.01,0.01,1.81,0.83,1.81,1.83
				C1856.11,2862.59,1855.3,2863.4,1854.3,2863.4z M1817.9,2863.18c0,0-0.01,0-0.01,0l-10.92-0.06c-1.01-0.01-1.81-0.82-1.81-1.83
				c0.01-1,0.97-1.84,1.83-1.81l10.92,0.06c1.01,0.01,1.81,0.82,1.81,1.83C1819.72,2862.38,1818.9,2863.18,1817.9,2863.18z
				 M1781.51,2862.97c0,0-0.01,0-0.01,0l-10.92-0.06c-1-0.01-1.81-0.82-1.81-1.83c0.01-1,0.82-1.81,1.82-1.81c0,0,0.01,0,0.01,0
				l10.92,0.06c1.01,0.01,1.81,0.82,1.81,1.83C1783.32,2862.16,1782.51,2862.97,1781.51,2862.97z M1745.11,2862.75
				c0,0-0.01,0-0.01,0l-10.92-0.06c-1-0.01-1.81-0.82-1.81-1.83c0.01-1,0.82-1.81,1.82-1.81c0,0,0.01,0,0.01,0l10.92,0.06
				c1.01,0.01,1.81,0.82,1.81,1.83C1746.93,2861.95,1746.11,2862.75,1745.11,2862.75z M1708.72,2862.54c0,0-0.01,0-0.01,0
				l-10.92-0.06c-1-0.01-1.81-0.82-1.81-1.83c0.01-1,0.82-1.81,1.82-1.81c0,0,0.01,0,0.01,0l10.92,0.06
				c1.01,0.01,1.81,0.83,1.81,1.83C1710.53,2861.73,1709.72,2862.54,1708.72,2862.54z M1672.33,2862.33c0,0-0.01,0-0.01,0
				l-10.92-0.06c-1-0.01-1.81-0.82-1.81-1.83c0.01-1,0.82-1.81,1.82-1.81c0,0,0.01,0,0.01,0l10.92,0.06
				c1.01,0.01,1.81,0.82,1.81,1.83C1674.14,2861.52,1673.33,2862.33,1672.33,2862.33z M1635.93,2862.11c0,0-0.01,0-0.01,0
				l-10.92-0.06c-1-0.01-1.81-0.83-1.81-1.83c0.01-1,0.82-1.81,1.82-1.81c0,0,0.01,0,0.01,0l10.92,0.06
				c1.01,0.01,1.81,0.82,1.81,1.83C1637.75,2861.3,1636.93,2862.11,1635.93,2862.11z M1599.54,2861.9c0,0-0.01,0-0.01,0l-10.92-0.07
				c-1.01-0.01-1.81-0.83-1.81-1.83c0.01-1,0.82-1.81,1.82-1.81c0,0,0.01,0,0.01,0l10.92,0.07c1.01,0.01,1.81,0.83,1.81,1.83
				C1601.35,2861.09,1600.54,2861.9,1599.54,2861.9z M1563.14,2861.68c0,0-0.01,0-0.01,0l-10.92-0.06
				c-1.01-0.01-1.81-0.82-1.81-1.83c0.01-1,0.82-1.81,1.82-1.81c0,0,0.01,0,0.01,0l10.92,0.06c1.01,0.01,1.81,0.82,1.81,1.83
				C1564.96,2860.88,1564.14,2861.68,1563.14,2861.68z M1526.75,2861.47c0,0-0.01,0-0.01,0l-10.92-0.06
				c-1.01-0.01-1.81-0.83-1.81-1.83c0.01-1,0.82-1.81,1.82-1.81c0,0,0.01,0,0.01,0l10.92,0.06c1.01,0.01,1.81,0.82,1.81,1.83
				C1528.56,2860.66,1527.75,2861.47,1526.75,2861.47z M1490.35,2861.25c0,0-0.01,0-0.01,0l-10.92-0.07
				c-1.01-0.01-1.81-0.83-1.81-1.83c0.01-1,0.82-1.81,1.82-1.81c0,0,0.01,0,0.01,0l10.92,0.07c1.01,0.01,1.81,0.83,1.81,1.83
				C1492.17,2860.45,1491.35,2861.25,1490.35,2861.25z M1453.96,2861.04c0,0-0.01,0-0.01,0l-10.92-0.06
				c-1.01-0.01-1.81-0.82-1.81-1.83c0.01-1,0.94-1.7,1.83-1.81l10.92,0.06c1,0.01,1.81,0.82,1.81,1.83
				C1455.77,2860.23,1454.96,2861.04,1453.96,2861.04z M1417.57,2860.82c0,0-0.01,0-0.01,0l-10.92-0.06
				c-1.01-0.01-1.81-0.82-1.81-1.83c0.01-1,0.82-1.81,1.82-1.81c0,0,0.01,0,0.01,0l10.92,0.06c1,0.01,1.81,0.82,1.81,1.83
				C1419.38,2860.02,1418.57,2860.82,1417.57,2860.82z M1381.17,2860.61c0,0-0.01,0-0.01,0l-10.92-0.06
				c-1.01-0.01-1.81-0.82-1.81-1.83c0.01-1.01,0.93-1.77,1.83-1.81l10.92,0.06c1.01,0.01,1.81,0.82,1.81,1.83
				C1382.99,2859.8,1382.17,2860.61,1381.17,2860.61z M1344.78,2860.4c0,0-0.01,0-0.01,0l-10.92-0.06
				c-1.01-0.01-1.81-0.83-1.81-1.83c0.01-1,0.82-1.81,1.82-1.81c0,0,0.01,0,0.01,0l10.92,0.06c1.01,0.01,1.81,0.82,1.81,1.83
				C1346.59,2859.59,1345.78,2860.4,1344.78,2860.4z M1308.38,2860.18c0,0-0.01,0-0.01,0l-10.92-0.06
				c-1.01-0.01-1.81-0.82-1.81-1.83c0.01-1,0.93-1.84,1.83-1.81l10.92,0.06c1.01,0.01,1.81,0.83,1.81,1.83
				C1310.2,2859.37,1309.38,2860.18,1308.38,2860.18z M1271.99,2859.97c0,0-0.01,0-0.01,0l-10.92-0.06
				c-1.01-0.01-1.81-0.82-1.81-1.83c0.01-1,0.82-1.81,1.82-1.81c0,0,0.01,0,0.01,0l10.92,0.06c1.01,0.01,1.81,0.82,1.81,1.83
				C1273.8,2859.16,1272.99,2859.97,1271.99,2859.97z M1235.59,2859.75c0,0-0.01,0-0.01,0l-10.92-0.07
				c-1.01-0.01-1.81-0.83-1.81-1.83c0.01-1,0.82-1.81,1.82-1.81c0,0,0.01,0,0.01,0l10.92,0.07c1.01,0.01,1.81,0.83,1.81,1.83
				C1237.41,2858.95,1236.6,2859.75,1235.59,2859.75z M1199.2,2859.54c0,0-0.01,0-0.01,0l-10.92-0.06c-1-0.01-1.81-0.82-1.81-1.83
				c0.01-1,0.82-1.81,1.82-1.81c0,0,0.01,0,0.01,0l10.92,0.06c1.01,0.01,1.81,0.83,1.81,1.83
				C1201.01,2858.73,1200.2,2859.54,1199.2,2859.54z M1162.81,2859.32c0,0-0.01,0-0.01,0l-10.92-0.06c-1-0.01-1.81-0.82-1.81-1.83
				c0.01-1,0.82-1.81,1.82-1.81c0,0,0.01,0,0.01,0l10.92,0.06c1.01,0.01,1.81,0.82,1.81,1.83
				C1164.62,2858.52,1163.81,2859.32,1162.81,2859.32z M1126.41,2859.11c0,0-0.01,0-0.01,0l-10.92-0.06c-1-0.01-1.81-0.83-1.81-1.83
				c0.01-1,0.82-1.81,1.82-1.81c0,0,0.01,0,0.01,0l10.92,0.06c1.01,0.01,1.81,0.82,1.81,1.83
				C1128.23,2858.3,1127.41,2859.11,1126.41,2859.11z M1090.02,2858.89c0,0-0.01,0-0.01,0l-10.92-0.06
				c-1.01-0.01-1.81-0.82-1.81-1.83c0.01-1,0.82-1.81,1.82-1.81c0,0,0.01,0,0.01,0l10.92,0.06c1.01,0.01,1.81,0.82,1.81,1.83
				C1091.83,2858.09,1091.02,2858.89,1090.02,2858.89z M1053.62,2858.68c0,0-0.01,0-0.01,0l-10.92-0.06
				c-1.01-0.01-1.81-0.82-1.81-1.83c0.01-1,0.82-1.81,1.82-1.81c0,0,0.01,0,0.01,0l10.92,0.06c1.01,0.01,1.81,0.82,1.81,1.83
				C1055.44,2857.87,1054.62,2858.68,1053.62,2858.68z M1017.23,2858.46c0,0-0.01,0-0.01,0l-10.92-0.06
				c-1.01-0.01-1.81-0.82-1.81-1.83c0.01-1,0.82-1.81,1.82-1.81c0,0,0.01,0,0.01,0l10.92,0.06c1.01,0.01,1.81,0.82,1.81,1.83
				C1019.04,2857.66,1018.23,2858.46,1017.23,2858.46z M980.84,2858.25c0,0-0.01,0-0.01,0l-10.92-0.07
				c-1.01-0.01-1.81-0.83-1.81-1.83c0.01-1,0.82-1.81,1.82-1.81c0,0,0.01,0,0.01,0l10.92,0.07c1.01,0.01,1.81,0.83,1.81,1.83
				C982.65,2857.44,981.84,2858.25,980.84,2858.25z M944.44,2858.04c0,0-0.01,0-0.01,0l-10.92-0.06c-1.01-0.01-1.81-0.83-1.81-1.83
				c0.01-1,0.9-1.71,1.83-1.81l10.92,0.06c1,0.01,1.81,0.82,1.81,1.83C946.26,2857.23,945.44,2858.04,944.44,2858.04z
				 M908.05,2857.82c0,0-0.01,0-0.01,0l-10.92-0.06c-1.01-0.01-1.81-0.82-1.81-1.83c0.01-1,0.82-1.81,1.82-1.81c0,0,0.01,0,0.01,0
				l10.92,0.06c1,0.01,1.81,0.83,1.81,1.83C909.86,2857.01,909.05,2857.82,908.05,2857.82z M871.65,2857.61c0,0-0.01,0-0.01,0
				l-10.92-0.07c-1.01-0.01-1.81-0.83-1.81-1.83c0.01-1.01,0.9-1.78,1.83-1.81l10.92,0.07c1.01,0,1.81,0.83,1.81,1.83
				C873.47,2856.8,872.65,2857.61,871.65,2857.61z M835.26,2857.39c0,0-0.01,0-0.01,0l-10.92-0.06c-1.01-0.01-1.81-0.83-1.81-1.83
				c0.01-1,0.82-1.81,1.82-1.81c0,0,0.01,0,0.01,0l10.92,0.06c1.01,0.01,1.81,0.82,1.81,1.83
				C837.07,2856.58,836.26,2857.39,835.26,2857.39z M2060.97,2857.2c-0.76,0-1.47-0.48-1.73-1.25c-0.32-0.95,0.2-1.98,1.15-2.3
				c3.4-1.13,6.79-2.4,10.08-3.79c0.93-0.38,1.99,0.04,2.39,0.97c0.39,0.93-0.04,1.99-0.97,2.38c-3.38,1.43-6.87,2.74-10.35,3.89
				C2061.35,2857.17,2061.16,2857.2,2060.97,2857.2z M798.86,2857.18c0,0-0.01,0-0.01,0l-10.92-0.06c-1.01-0.01-1.81-0.82-1.81-1.83
				c0.01-1,0.89-1.85,1.83-1.81l10.92,0.06c1.01,0.01,1.81,0.83,1.81,1.83C800.68,2856.37,799.86,2857.18,798.86,2857.18z
				 M762.47,2856.96c0,0-0.01,0-0.01,0l-10.92-0.06c-1.01-0.01-1.81-0.82-1.81-1.83c0.01-1,0.82-1.81,1.82-1.81c0,0,0.01,0,0.01,0
				l10.92,0.06c1.01,0.01,1.81,0.82,1.81,1.83C764.28,2856.16,763.47,2856.96,762.47,2856.96z M726.08,2856.75c0,0-0.01,0-0.01,0
				l-10.92-0.06c-1.01-0.01-1.81-0.82-1.81-1.83c0.01-1,0.82-1.81,1.82-1.81c0,0,0.01,0,0.01,0l10.92,0.06
				c1.01,0.01,1.81,0.83,1.81,1.83C727.89,2855.94,727.08,2856.75,726.08,2856.75z M689.68,2856.53c0,0-0.01,0-0.01,0l-10.92-0.06
				c-1.01-0.01-1.81-0.82-1.81-1.83c0.01-1,0.82-1.81,1.82-1.81c0,0,0.01,0,0.01,0l10.92,0.06c1.01,0.01,1.81,0.82,1.81,1.83
				C691.5,2855.73,690.68,2856.53,689.68,2856.53z M653.29,2856.32c0,0-0.01,0-0.01,0l-10.92-0.06c-1-0.01-1.81-0.82-1.81-1.83
				c0.01-1,0.82-1.81,1.82-1.81c0,0,0.01,0,0.01,0l10.92,0.06c1.01,0.01,1.81,0.82,1.81,1.83
				C655.1,2855.51,654.29,2856.32,653.29,2856.32z M616.89,2856.11c0,0-0.01,0-0.01,0l-10.92-0.07c-1.01-0.01-1.81-0.83-1.81-1.83
				c0.01-1,0.82-1.81,1.82-1.81c0,0,0.01,0,0.01,0l10.92,0.07c1.01,0.01,1.81,0.83,1.81,1.83
				C618.71,2855.3,617.89,2856.11,616.89,2856.11z M580.51,2855.7c-0.03,0-0.06,0-0.09,0c-3.64-0.18-7.33-0.47-10.98-0.86
				c-1-0.1-1.72-1-1.62-2c0.11-1,0.98-1.74,2-1.62c3.58,0.38,7.2,0.66,10.78,0.84c1,0.05,1.78,0.9,1.73,1.91
				C582.27,2854.94,581.47,2855.7,580.51,2855.7z M544.54,2850.52c-0.14,0-0.28-0.02-0.43-0.05c-3.55-0.85-7.13-1.82-10.63-2.88
				c-0.96-0.29-1.51-1.3-1.22-2.27c0.29-0.96,1.31-1.51,2.27-1.22c3.44,1.04,6.95,1.99,10.43,2.83c0.98,0.24,1.58,1.22,1.34,2.2
				C546.11,2849.96,545.36,2850.52,544.54,2850.52z M2093.64,2841.39c-0.59,0-1.17-0.29-1.52-0.82c-0.55-0.84-0.32-1.97,0.52-2.52
				c3-1.97,5.95-4.07,8.78-6.25c0.79-0.61,1.94-0.47,2.55,0.33c0.61,0.79,0.47,1.94-0.33,2.55c-2.89,2.24-5.92,4.4-9,6.42
				C2094.32,2841.3,2093.98,2841.39,2093.64,2841.39z M510.18,2838.73c-0.25,0-0.5-0.05-0.75-0.16c-3.32-1.5-6.65-3.12-9.89-4.81
				c-0.89-0.47-1.24-1.56-0.77-2.46c0.47-0.89,1.56-1.24,2.46-0.77c3.19,1.66,6.45,3.25,9.71,4.72c0.92,0.41,1.32,1.49,0.91,2.41
				C511.53,2838.33,510.87,2838.73,510.18,2838.73z M478.63,2820.75c-0.36,0-0.72-0.11-1.04-0.33c-2.99-2.1-5.96-4.31-8.83-6.57
				c-0.79-0.62-0.92-1.77-0.3-2.56c0.62-0.79,1.77-0.92,2.56-0.3c2.82,2.22,5.73,4.39,8.67,6.45c0.82,0.58,1.02,1.71,0.44,2.53
				C479.77,2820.48,479.21,2820.75,478.63,2820.75z M2121.16,2817.74c-0.43,0-0.87-0.15-1.22-0.47c-0.75-0.67-0.81-1.82-0.14-2.57
				c2.38-2.66,4.7-5.45,6.87-8.29c0.61-0.8,1.75-0.95,2.55-0.34c0.8,0.61,0.95,1.75,0.34,2.55c-2.23,2.92-4.61,5.79-7.05,8.51
				C2122.15,2817.54,2121.66,2817.74,2121.16,2817.74z M450.97,2797.21c-0.47,0-0.95-0.18-1.3-0.55c-2.55-2.62-5.07-5.34-7.47-8.1
				c-0.66-0.76-0.58-1.91,0.18-2.57c0.76-0.66,1.9-0.58,2.57,0.18c2.36,2.71,4.82,5.38,7.33,7.95c0.7,0.72,0.69,1.87-0.03,2.57
				C451.89,2797.04,451.43,2797.21,450.97,2797.21z M2141.66,2787.81c-0.28,0-0.56-0.06-0.82-0.2c-0.9-0.46-1.25-1.55-0.8-2.45
				c1.62-3.19,3.12-6.48,4.49-9.78c0.38-0.93,1.45-1.36,2.38-0.99c0.93,0.38,1.37,1.45,0.99,2.38c-1.4,3.39-2.95,6.77-4.61,10.04
				C2142.96,2787.44,2142.32,2787.81,2141.66,2787.81z M428.15,2768.93c-0.59,0-1.17-0.29-1.52-0.82c-2.03-3.06-3.99-6.21-5.83-9.36
				c-0.51-0.87-0.22-1.98,0.65-2.49c0.87-0.51,1.99-0.21,2.49,0.65c1.81,3.09,3.73,6.18,5.72,9.19c0.55,0.84,0.33,1.97-0.51,2.52
				C428.84,2768.83,428.49,2768.93,428.15,2768.93z M2153.69,2753.59c-0.12,0-0.25-0.01-0.37-0.04c-0.98-0.21-1.61-1.17-1.41-2.15
				c0.56-2.67,1.05-5.41,1.46-8.14l0.37-2.51c0.15-0.99,1.07-1.7,2.06-1.54c0.99,0.14,1.68,1.07,1.54,2.06l-0.37,2.52
				c-0.42,2.8-0.92,5.61-1.5,8.35C2155.29,2753,2154.53,2753.59,2153.69,2753.59z M411.02,2736.87c-0.71,0-1.39-0.42-1.68-1.12
				c-1.41-3.37-2.74-6.84-3.97-10.3c-0.33-0.95,0.16-1.99,1.11-2.32c0.94-0.32,1.98,0.16,2.32,1.11c1.2,3.4,2.51,6.8,3.89,10.11
				c0.39,0.93-0.05,1.99-0.98,2.38C411.49,2736.83,411.25,2736.87,411.02,2736.87z M2159.15,2717.6c-0.08,0-0.17-0.01-0.25-0.02
				c-1-0.14-1.69-1.06-1.55-2.05c0.49-3.55,0.99-7.16,1.48-10.81c0.14-0.99,1.04-1.69,2.05-1.56c1,0.14,1.69,1.05,1.56,2.05
				c-0.5,3.66-0.99,7.27-1.49,10.82C2160.83,2716.95,2160.05,2717.6,2159.15,2717.6z M400.23,2702.13c-0.84,0-1.6-0.59-1.78-1.45
				c-0.75-3.59-1.4-7.24-1.94-10.84c-0.15-0.99,0.54-1.92,1.53-2.07c1.01-0.13,1.92,0.54,2.07,1.53c0.53,3.54,1.17,7.12,1.91,10.64
				c0.21,0.98-0.42,1.95-1.41,2.15C400.48,2702.12,400.36,2702.13,400.23,2702.13z M2163.96,2681.52c-0.08,0-0.15-0.01-0.23-0.01
				c-1-0.13-1.7-1.04-1.58-2.03l1.36-10.83c0.12-1,1.04-1.71,2.03-1.58c1,0.12,1.71,1.03,1.58,2.03l-1.36,10.84
				C2165.65,2680.85,2164.86,2681.52,2163.96,2681.52z M396.17,2666.03c-0.98,0-1.79-0.78-1.82-1.76l-0.35-10.91
				c-0.03-1,0.76-1.84,1.76-1.88c1.01-0.09,1.84,0.76,1.88,1.76l0.35,10.91c0.03,1-0.76,1.84-1.76,1.88
				C396.21,2666.03,396.19,2666.03,396.17,2666.03z M2168.35,2645.39c-0.07,0-0.14,0-0.21-0.01c-1-0.12-1.71-1.02-1.6-2.02
				c0.42-3.58,0.83-7.2,1.24-10.84c0.11-1,1.02-1.7,2.01-1.61c1,0.11,1.72,1.01,1.61,2.01c-0.41,3.65-0.82,7.27-1.24,10.86
				C2170.05,2644.7,2169.26,2645.39,2168.35,2645.39z M395,2629.66c-0.98,0-1.79-0.78-1.82-1.76l-0.35-10.91
				c-0.03-1,0.76-1.84,1.76-1.88c0.99-0.06,1.85,0.76,1.88,1.76l0.35,10.91c0.03,1-0.76,1.84-1.76,1.88
				C395.04,2629.66,395.02,2629.66,395,2629.66z M2172.33,2609.2c-0.06,0-0.13,0-0.19-0.01c-1-0.1-1.73-1-1.62-2
				c0.37-3.59,0.75-7.21,1.11-10.86c0.1-1,0.99-1.72,1.99-1.63c1,0.1,1.73,0.99,1.63,1.99c-0.37,3.65-0.74,7.27-1.12,10.87
				C2174.05,2608.51,2173.25,2609.2,2172.33,2609.2z M393.83,2593.28c-0.98,0-1.79-0.78-1.82-1.76l-0.35-10.91
				c-0.03-1,0.76-1.84,1.76-1.88c0.86-0.14,1.85,0.75,1.88,1.76l0.35,10.91c0.03,1-0.76,1.84-1.76,1.88
				C393.87,2593.28,393.85,2593.28,393.83,2593.28z M2175.9,2572.98c-0.06,0-0.11,0-0.17-0.01c-1-0.09-1.74-0.98-1.64-1.98
				c0.33-3.6,0.66-7.22,0.99-10.87c0.09-1,0.95-1.75,1.97-1.65c1,0.09,1.74,0.97,1.65,1.97c-0.33,3.65-0.65,7.28-0.99,10.88
				C2177.62,2572.27,2176.83,2572.98,2175.9,2572.98z M392.66,2556.9c-0.98,0-1.79-0.78-1.82-1.76l-0.35-10.91
				c-0.03-1,0.76-1.84,1.76-1.88c0.87-0.13,1.84,0.75,1.88,1.76l0.35,10.91c0.03,1-0.76,1.84-1.76,1.88
				C392.71,2556.9,392.69,2556.9,392.66,2556.9z M2179.05,2536.71c-0.05,0-0.1,0-0.15-0.01c-1-0.08-1.75-0.96-1.67-1.96l0.86-10.88
				c0.08-1,0.91-1.75,1.96-1.67c1,0.08,1.75,0.95,1.67,1.96l-0.86,10.89C2180.78,2535.99,2179.98,2536.71,2179.05,2536.71z
				 M391.49,2520.53c-0.98,0-1.79-0.78-1.82-1.76l-0.35-10.91c-0.03-1,0.76-1.84,1.76-1.88c0.97-0.05,1.85,0.76,1.88,1.76
				l0.35,10.91c0.03,1-0.76,1.84-1.76,1.88C391.53,2520.53,391.51,2520.53,391.49,2520.53z M2181.76,2500.41c-0.04,0-0.08,0-0.13,0
				c-1-0.07-1.76-0.94-1.69-1.94l0.73-10.89c0.06-1,0.91-1.74,1.94-1.7c1,0.07,1.76,0.93,1.7,1.94l-0.73,10.9
				C2183.5,2499.67,2182.71,2500.41,2181.76,2500.41z M390.33,2484.15c-0.98,0-1.79-0.78-1.82-1.76l-0.35-10.91
				c-0.03-1,0.76-1.84,1.76-1.88c0.96-0.11,1.85,0.76,1.88,1.76l0.35,10.91c0.03,1-0.76,1.84-1.76,1.88
				C390.36,2484.15,390.35,2484.15,390.33,2484.15z M2184.02,2464.08c-0.03,0-0.07,0-0.1,0c-1-0.06-1.77-0.92-1.71-1.92
				c0.2-3.62,0.4-7.25,0.59-10.9c0.05-1,0.92-1.78,1.91-1.72c1,0.05,1.78,0.91,1.72,1.91c-0.19,3.65-0.39,7.29-0.59,10.91
				C2185.78,2463.33,2184.98,2464.08,2184.02,2464.08z M389.15,2447.78c-0.98,0-1.79-0.78-1.82-1.76l-0.35-10.91
				c-0.03-1,0.76-1.84,1.76-1.88c0.96-0.08,1.85,0.76,1.88,1.76l0.35,10.91c0.03,1-0.76,1.84-1.76,1.88
				C389.2,2447.78,389.17,2447.78,389.15,2447.78z M2185.82,2427.72c-0.03,0-0.05,0-0.08,0c-1-0.04-1.78-0.89-1.74-1.9
				c0.16-3.62,0.31-7.26,0.45-10.9c0.04-1,0.9-1.83,1.89-1.75c1,0.04,1.79,0.89,1.75,1.89c-0.14,3.65-0.29,7.29-0.45,10.92
				C2187.59,2426.96,2186.79,2427.72,2185.82,2427.72z M387.99,2411.4c-0.98,0-1.79-0.78-1.82-1.76l-0.35-10.91
				c-0.03-1,0.76-1.84,1.76-1.88c0.89-0.11,1.84,0.75,1.88,1.76l0.35,10.91c0.03,1-0.76,1.84-1.76,1.88
				C388.03,2411.4,388,2411.4,387.99,2411.4z M2187.13,2391.34c-0.02,0-0.04,0-0.05,0c-1-0.03-1.79-0.87-1.77-1.87
				c0.11-3.63,0.21-7.26,0.3-10.91c0.03-1,0.83-1.77,1.87-1.77c1,0.03,1.8,0.86,1.77,1.87c-0.09,3.65-0.19,7.29-0.3,10.92
				C2188.92,2390.56,2188.11,2391.34,2187.13,2391.34z M386.82,2375.02c-0.98,0-1.79-0.78-1.82-1.76l-0.35-10.91
				c-0.03-1,0.76-1.84,1.76-1.88c0.89-0.1,1.84,0.75,1.88,1.76l0.35,10.91c0.03,1-0.76,1.84-1.76,1.88
				C386.86,2375.02,386.84,2375.02,386.82,2375.02z M2187.94,2354.95c-0.01,0-0.02,0-0.03,0c-1.01-0.02-1.81-0.84-1.79-1.85
				c0.05-3.63,0.1-7.27,0.14-10.91c0.01-1.01,0.96-1.77,1.84-1.8c1.01,0.01,1.81,0.83,1.8,1.84c-0.04,3.65-0.09,7.29-0.14,10.93
				C2189.75,2354.16,2188.94,2354.95,2187.94,2354.95z M385.65,2338.65c-0.98,0-1.79-0.78-1.82-1.76l-0.35-10.91
				c-0.03-1,0.76-1.84,1.76-1.88c0.89-0.1,1.84,0.75,1.88,1.76l0.35,10.91c0.03,1-0.76,1.84-1.76,1.88
				C385.69,2338.65,385.67,2338.65,385.65,2338.65z M2188.23,2318.56c-1,0-1.82-0.81-1.82-1.82v-0.88c0-3.34-0.01-6.68-0.02-10.02
				c0-1,0.81-1.82,1.81-1.83h0.01c1,0,1.82,0.81,1.82,1.81c0.01,3.35,0.02,6.7,0.02,10.04v0.88
				C2190.05,2317.74,2189.24,2318.56,2188.23,2318.56z M384.48,2302.27c-0.98,0-1.79-0.78-1.82-1.76l-0.35-10.91
				c-0.03-1,0.76-1.84,1.76-1.88c1.01-0.13,1.84,0.76,1.88,1.76l0.35,10.91c0.03,1-0.76,1.84-1.76,1.88
				C384.52,2302.27,384.5,2302.27,384.48,2302.27z M2187.96,2282.18c-0.99,0-1.8-0.8-1.82-1.79c-0.06-3.63-0.12-7.26-0.19-10.9
				c-0.02-1,0.78-1.84,1.78-1.86c0.87-0.07,1.83,0.77,1.86,1.78c0.07,3.64,0.14,7.29,0.19,10.92c0.01,1-0.79,1.83-1.79,1.85
				C2187.98,2282.18,2187.97,2282.18,2187.96,2282.18z M383.31,2265.9c-0.98,0-1.79-0.78-1.82-1.76l-0.35-10.91
				c-0.03-1,0.76-1.84,1.76-1.88c0.9-0.09,1.84,0.75,1.88,1.76l0.35,10.91c0.03,1-0.76,1.84-1.76,1.88
				C383.35,2265.9,383.33,2265.9,383.31,2265.9z M2187.11,2245.8c-0.98,0-1.79-0.78-1.82-1.76c-0.12-3.63-0.24-7.26-0.37-10.9
				c-0.04-1,0.75-1.85,1.75-1.89c1.02-0.09,1.85,0.75,1.89,1.75c0.14,3.64,0.26,7.28,0.38,10.92c0.03,1-0.76,1.84-1.76,1.88
				C2187.15,2245.8,2187.13,2245.8,2187.11,2245.8z M382.14,2229.52c-0.98,0-1.79-0.78-1.82-1.76l-0.35-10.91
				c-0.03-1,0.76-1.84,1.76-1.88c1-0.06,1.84,0.76,1.88,1.76l0.35,10.91c0.03,1-0.76,1.84-1.76,1.88
				C382.18,2229.52,382.16,2229.52,382.14,2229.52z M2185.64,2209.44c-0.96,0-1.77-0.76-1.82-1.73c-0.18-3.63-0.37-7.26-0.56-10.89
				c-0.06-1,0.71-1.86,1.72-1.92c0.98-0.04,1.86,0.71,1.92,1.72c0.2,3.64,0.39,7.28,0.57,10.91c0.05,1-0.72,1.86-1.73,1.91
				C2185.7,2209.44,2185.67,2209.44,2185.64,2209.44z M380.97,2193.14c-0.98,0-1.79-0.78-1.82-1.76l-0.35-10.91
				c-0.03-1,0.76-1.84,1.76-1.88c1.05,0.01,1.85,0.76,1.88,1.76l0.35,10.91c0.03,1-0.76,1.84-1.76,1.88
				C381.01,2193.14,380.99,2193.14,380.97,2193.14z M2183.51,2173.11c-0.95,0-1.75-0.74-1.81-1.7c-0.24-3.63-0.5-7.25-0.77-10.88
				c-0.07-1,0.68-1.87,1.68-1.95c1.05-0.07,1.88,0.68,1.95,1.68c0.27,3.63,0.53,7.27,0.77,10.9c0.07,1-0.69,1.87-1.69,1.94
				C2183.6,2173.11,2183.55,2173.11,2183.51,2173.11z M379.8,2156.77c-0.98,0-1.79-0.78-1.82-1.76l-0.35-10.91
				c-0.03-1,0.76-1.84,1.76-1.88c0.91-0.15,1.84,0.75,1.88,1.76l0.35,10.91c0.03,1-0.76,1.84-1.76,1.88
				C379.84,2156.77,379.82,2156.77,379.8,2156.77z M2180.69,2136.83c-0.93,0-1.73-0.71-1.81-1.66c-0.32-3.62-0.65-7.24-0.99-10.86
				c-0.09-1,0.64-1.89,1.64-1.98c1.01-0.08,1.89,0.64,1.98,1.64c0.34,3.63,0.67,7.26,0.99,10.88c0.09,1-0.65,1.89-1.65,1.97
				C2180.8,2136.83,2180.75,2136.83,2180.69,2136.83z M378.63,2120.39c-0.98,0-1.79-0.78-1.82-1.76l-0.35-10.91
				c-0.03-1,0.76-1.84,1.76-1.88c0.92-0.06,1.84,0.75,1.88,1.76l0.35,10.91c0.03,1-0.76,1.84-1.76,1.88
				C378.67,2120.39,378.65,2120.39,378.63,2120.39z M2177.13,2100.61c-0.92,0-1.71-0.69-1.81-1.62c-0.4-3.61-0.8-7.23-1.22-10.84
				c-0.12-1,0.6-1.9,1.6-2.02c1.02-0.12,1.9,0.6,2.02,1.6c0.42,3.62,0.83,7.24,1.22,10.87c0.11,1-0.61,1.9-1.61,2.01
				C2177.26,2100.6,2177.19,2100.61,2177.13,2100.61z M377.46,2084.02c-0.98,0-1.79-0.78-1.82-1.76l-0.41-12.79h6.6
				c1.01,0,1.82,0.81,1.82,1.82c0,1-0.81,1.82-1.82,1.82h-2.85l0.29,9.03c0.03,1-0.76,1.84-1.76,1.88
				C377.5,2084.02,377.48,2084.02,377.46,2084.02z M2165.18,2073.1h-10.92c-1.01,0-1.82-0.82-1.82-1.82c0-1.01,0.81-1.82,1.82-1.82
				h10.92c1.01,0,1.82,0.81,1.82,1.82C2167,2072.29,2166.19,2073.1,2165.18,2073.1z M2128.79,2073.1h-10.92
				c-1.01,0-1.82-0.82-1.82-1.82c0-1.01,0.81-1.82,1.82-1.82h10.92c1.01,0,1.82,0.81,1.82,1.82
				C2130.61,2072.29,2129.79,2073.1,2128.79,2073.1z M2092.39,2073.1h-10.92c-1.01,0-1.82-0.82-1.82-1.82
				c0-1.01,0.81-1.82,1.82-1.82h10.92c1.01,0,1.82,0.81,1.82,1.82C2094.21,2072.29,2093.4,2073.1,2092.39,2073.1z M2056,2073.1
				h-10.92c-1.01,0-1.82-0.82-1.82-1.82c0-1.01,0.81-1.82,1.82-1.82H2056c1.01,0,1.82,0.81,1.82,1.82
				C2057.82,2072.29,2057,2073.1,2056,2073.1z M2019.6,2073.1h-10.92c-1.01,0-1.82-0.82-1.82-1.82c0-1.01,0.81-1.82,1.82-1.82h10.92
				c1.01,0,1.82,0.81,1.82,1.82C2021.42,2072.29,2020.61,2073.1,2019.6,2073.1z M1983.21,2073.1h-10.92c-1.01,0-1.82-0.82-1.82-1.82
				c0-1.01,0.81-1.82,1.82-1.82h10.92c1.01,0,1.82,0.81,1.82,1.82C1985.03,2072.29,1984.21,2073.1,1983.21,2073.1z M1946.81,2073.1
				h-10.92c-1.01,0-1.82-0.82-1.82-1.82c0-1.01,0.81-1.82,1.82-1.82h10.92c1.01,0,1.82,0.81,1.82,1.82
				C1948.63,2072.29,1947.82,2073.1,1946.81,2073.1z M1910.42,2073.1h-10.92c-1.01,0-1.82-0.82-1.82-1.82
				c0-1.01,0.81-1.82,1.82-1.82h10.92c1.01,0,1.82,0.81,1.82,1.82C1912.24,2072.29,1911.42,2073.1,1910.42,2073.1z M1874.02,2073.1
				h-10.92c-1.01,0-1.82-0.82-1.82-1.82c0-1.01,0.81-1.82,1.82-1.82h10.92c1.01,0,1.82,0.81,1.82,1.82
				C1875.84,2072.29,1875.03,2073.1,1874.02,2073.1z M1837.63,2073.1h-10.92c-1.01,0-1.82-0.82-1.82-1.82
				c0-1.01,0.81-1.82,1.82-1.82h10.92c1.01,0,1.82,0.81,1.82,1.82C1839.45,2072.29,1838.64,2073.1,1837.63,2073.1z M1801.23,2073.1
				h-10.92c-1.01,0-1.82-0.82-1.82-1.82c0-1.01,0.81-1.82,1.82-1.82h10.92c1.01,0,1.82,0.81,1.82,1.82
				C1803.05,2072.29,1802.24,2073.1,1801.23,2073.1z M1764.84,2073.1h-10.92c-1.01,0-1.82-0.82-1.82-1.82
				c0-1.01,0.81-1.82,1.82-1.82h10.92c1.01,0,1.82,0.81,1.82,1.82C1766.66,2072.29,1765.85,2073.1,1764.84,2073.1z M1728.44,2073.1
				h-10.92c-1.01,0-1.82-0.82-1.82-1.82c0-1.01,0.81-1.82,1.82-1.82h10.92c1.01,0,1.82,0.81,1.82,1.82
				C1730.26,2072.29,1729.45,2073.1,1728.44,2073.1z M1692.05,2073.1h-10.92c-1.01,0-1.82-0.82-1.82-1.82
				c0-1.01,0.81-1.82,1.82-1.82h10.92c1.01,0,1.82,0.81,1.82,1.82C1693.87,2072.29,1693.06,2073.1,1692.05,2073.1z M1655.66,2073.1
				h-10.92c-1.01,0-1.82-0.82-1.82-1.82c0-1.01,0.81-1.82,1.82-1.82h10.92c1.01,0,1.82,0.81,1.82,1.82
				C1657.47,2072.29,1656.66,2073.1,1655.66,2073.1z M1619.26,2073.1h-10.92c-1.01,0-1.82-0.82-1.82-1.82
				c0-1.01,0.81-1.82,1.82-1.82h10.92c1.01,0,1.82,0.81,1.82,1.82C1621.08,2072.29,1620.27,2073.1,1619.26,2073.1z M1582.87,2073.1
				h-10.92c-1.01,0-1.82-0.82-1.82-1.82c0-1.01,0.81-1.82,1.82-1.82h10.92c1.01,0,1.82,0.81,1.82,1.82
				C1584.69,2072.29,1583.87,2073.1,1582.87,2073.1z M1546.47,2073.1h-10.92c-1.01,0-1.82-0.82-1.82-1.82
				c0-1.01,0.81-1.82,1.82-1.82h10.92c1.01,0,1.82,0.81,1.82,1.82C1548.29,2072.29,1547.48,2073.1,1546.47,2073.1z M1510.08,2073.1
				h-10.92c-1.01,0-1.82-0.82-1.82-1.82c0-1.01,0.81-1.82,1.82-1.82h10.92c1.01,0,1.82,0.81,1.82,1.82
				C1511.9,2072.29,1511.08,2073.1,1510.08,2073.1z M1473.68,2073.1h-10.92c-1.01,0-1.82-0.82-1.82-1.82c0-1.01,0.81-1.82,1.82-1.82
				h10.92c1.01,0,1.82,0.81,1.82,1.82C1475.5,2072.29,1474.69,2073.1,1473.68,2073.1z M1437.29,2073.1h-10.92
				c-1.01,0-1.82-0.82-1.82-1.82c0-1.01,0.81-1.82,1.82-1.82h10.92c1.01,0,1.82,0.81,1.82,1.82
				C1439.11,2072.29,1438.29,2073.1,1437.29,2073.1z M1400.89,2073.1h-10.92c-1.01,0-1.82-0.82-1.82-1.82
				c0-1.01,0.81-1.82,1.82-1.82h10.92c1.01,0,1.82,0.81,1.82,1.82C1402.71,2072.29,1401.9,2073.1,1400.89,2073.1z M1364.5,2073.1
				h-10.92c-1.01,0-1.82-0.82-1.82-1.82c0-1.01,0.81-1.82,1.82-1.82h10.92c1.01,0,1.82,0.81,1.82,1.82
				C1366.32,2072.29,1365.5,2073.1,1364.5,2073.1z M1328.1,2073.1h-10.92c-1.01,0-1.82-0.82-1.82-1.82c0-1.01,0.81-1.82,1.82-1.82
				h10.92c1.01,0,1.82,0.81,1.82,1.82C1329.92,2072.29,1329.11,2073.1,1328.1,2073.1z M1291.71,2073.1h-10.92
				c-1.01,0-1.82-0.82-1.82-1.82c0-1.01,0.81-1.82,1.82-1.82h10.92c1.01,0,1.82,0.81,1.82,1.82
				C1293.53,2072.29,1292.71,2073.1,1291.71,2073.1z M1255.31,2073.1h-10.92c-1.01,0-1.82-0.82-1.82-1.82
				c0-1.01,0.81-1.82,1.82-1.82h10.92c1.01,0,1.82,0.81,1.82,1.82C1257.13,2072.29,1256.32,2073.1,1255.31,2073.1z M1218.92,2073.1
				H1208c-1.01,0-1.82-0.82-1.82-1.82c0-1.01,0.81-1.82,1.82-1.82h10.92c1.01,0,1.82,0.81,1.82,1.82
				C1220.74,2072.29,1219.92,2073.1,1218.92,2073.1z M1182.52,2073.1h-10.92c-1.01,0-1.82-0.82-1.82-1.82
				c0-1.01,0.81-1.82,1.82-1.82h10.92c1.01,0,1.82,0.81,1.82,1.82C1184.34,2072.29,1183.53,2073.1,1182.52,2073.1z M1146.13,2073.1
				h-10.92c-1.01,0-1.82-0.82-1.82-1.82c0-1.01,0.81-1.82,1.82-1.82h10.92c1.01,0,1.82,0.81,1.82,1.82
				C1147.95,2072.29,1147.13,2073.1,1146.13,2073.1z M1109.73,2073.1h-10.92c-1.01,0-1.82-0.82-1.82-1.82
				c0-1.01,0.81-1.82,1.82-1.82h10.92c1.01,0,1.82,0.81,1.82,1.82C1111.55,2072.29,1110.74,2073.1,1109.73,2073.1z M1073.34,2073.1
				h-10.92c-1.01,0-1.82-0.82-1.82-1.82c0-1.01,0.81-1.82,1.82-1.82h10.92c1.01,0,1.82,0.81,1.82,1.82
				C1075.16,2072.29,1074.34,2073.1,1073.34,2073.1z M1036.94,2073.1h-10.92c-1.01,0-1.82-0.82-1.82-1.82
				c0-1.01,0.81-1.82,1.82-1.82h10.92c1.01,0,1.82,0.81,1.82,1.82C1038.76,2072.29,1037.95,2073.1,1036.94,2073.1z M1000.55,2073.1
				h-10.92c-1.01,0-1.82-0.82-1.82-1.82c0-1.01,0.81-1.82,1.82-1.82h10.92c1.01,0,1.82,0.81,1.82,1.82
				C1002.37,2072.29,1001.55,2073.1,1000.55,2073.1z M964.15,2073.1h-10.92c-1.01,0-1.82-0.82-1.82-1.82c0-1.01,0.81-1.82,1.82-1.82
				h10.92c1.01,0,1.82,0.81,1.82,1.82C965.97,2072.29,965.16,2073.1,964.15,2073.1z M927.76,2073.1h-10.92
				c-1.01,0-1.82-0.82-1.82-1.82c0-1.01,0.81-1.82,1.82-1.82h10.92c1.01,0,1.82,0.81,1.82,1.82
				C929.58,2072.29,928.76,2073.1,927.76,2073.1z M891.36,2073.1h-10.92c-1.01,0-1.82-0.82-1.82-1.82c0-1.01,0.81-1.82,1.82-1.82
				h10.92c1.01,0,1.82,0.81,1.82,1.82C893.18,2072.29,892.37,2073.1,891.36,2073.1z M854.97,2073.1h-10.92
				c-1.01,0-1.82-0.82-1.82-1.82c0-1.01,0.81-1.82,1.82-1.82h10.92c1.01,0,1.82,0.81,1.82,1.82
				C856.79,2072.29,855.97,2073.1,854.97,2073.1z M818.57,2073.1h-10.92c-1.01,0-1.82-0.82-1.82-1.82c0-1.01,0.81-1.82,1.82-1.82
				h10.92c1.01,0,1.82,0.81,1.82,1.82C820.39,2072.29,819.58,2073.1,818.57,2073.1z M782.18,2073.1h-10.92
				c-1.01,0-1.82-0.82-1.82-1.82c0-1.01,0.81-1.82,1.82-1.82h10.92c1.01,0,1.82,0.81,1.82,1.82
				C784,2072.29,783.18,2073.1,782.18,2073.1z M745.78,2073.1h-10.92c-1.01,0-1.82-0.82-1.82-1.82c0-1.01,0.81-1.82,1.82-1.82h10.92
				c1.01,0,1.82,0.81,1.82,1.82C747.6,2072.29,746.79,2073.1,745.78,2073.1z M709.39,2073.1h-10.92c-1.01,0-1.82-0.82-1.82-1.82
				c0-1.01,0.81-1.82,1.82-1.82h10.92c1.01,0,1.82,0.81,1.82,1.82C711.21,2072.29,710.39,2073.1,709.39,2073.1z M672.99,2073.1
				h-10.92c-1.01,0-1.82-0.82-1.82-1.82c0-1.01,0.81-1.82,1.82-1.82h10.92c1.01,0,1.82,0.81,1.82,1.82
				C674.81,2072.29,674,2073.1,672.99,2073.1z M636.6,2073.1h-10.92c-1.01,0-1.82-0.82-1.82-1.82c0-1.01,0.81-1.82,1.82-1.82h10.92
				c1.01,0,1.82,0.81,1.82,1.82C638.42,2072.29,637.6,2073.1,636.6,2073.1z M600.2,2073.1h-10.92c-1.01,0-1.82-0.82-1.82-1.82
				c0-1.01,0.81-1.82,1.82-1.82h10.92c1.01,0,1.82,0.81,1.82,1.82C602.02,2072.29,601.21,2073.1,600.2,2073.1z M563.81,2073.1
				h-10.92c-1.01,0-1.82-0.82-1.82-1.82c0-1.01,0.81-1.82,1.82-1.82h10.92c1.01,0,1.82,0.81,1.82,1.82
				C565.63,2072.29,564.81,2073.1,563.81,2073.1z M527.41,2073.1H516.5c-1.01,0-1.82-0.82-1.82-1.82c0-1.01,0.81-1.82,1.82-1.82
				h10.92c1.01,0,1.82,0.81,1.82,1.82C529.23,2072.29,528.42,2073.1,527.41,2073.1z M491.02,2073.1H480.1
				c-1.01,0-1.82-0.82-1.82-1.82c0-1.01,0.81-1.82,1.82-1.82h10.92c1.01,0,1.82,0.81,1.82,1.82
				C492.84,2072.29,492.03,2073.1,491.02,2073.1z M454.62,2073.1h-10.92c-1.01,0-1.82-0.82-1.82-1.82c0-1.01,0.81-1.82,1.82-1.82
				h10.92c1.01,0,1.82,0.81,1.82,1.82C456.44,2072.29,455.63,2073.1,454.62,2073.1z M418.23,2073.1h-10.92
				c-1.01,0-1.82-0.82-1.82-1.82c0-1.01,0.81-1.82,1.82-1.82h10.92c1.01,0,1.82,0.81,1.82,1.82
				C420.05,2072.29,419.24,2073.1,418.23,2073.1z"/>
			
				<linearGradient id="SVGID_00000002385918231996536010000012365070092808906942_" gradientUnits="userSpaceOnUse" x1="905.0496" y1="1742.0581" x2="894.0397" y2="1475.0717">
				<stop  offset="0" style="stop-color:#09005D"/>
				<stop  offset="1" style="stop-color:#1A0F91"/>
			</linearGradient>
			<path style="fill:url(#SVGID_00000002385918231996536010000012365070092808906942_);" d="M770.41,1616.88l4.51-48.27
				c5.09-11.53,15.66-19.68,28.15-21.67c46.7-7.43,162.51-20.5,218.28,21.17l8.33,56.1L770.41,1616.88z"/>
			
				<linearGradient id="SVGID_00000173148173491469808790000000543810719106806912_" gradientUnits="userSpaceOnUse" x1="891.1108" y1="1341.2123" x2="946.1592" y2="2106.3872">
				<stop  offset="0" style="stop-color:#09005D"/>
				<stop  offset="1" style="stop-color:#1A0F91"/>
			</linearGradient>
			<path style="fill:url(#SVGID_00000173148173491469808790000000543810719106806912_);" d="M916.28,1570.43
				c-10.75,2.62-21.52,2.61-32.31-0.04c-13.06-3.21-22.27-14.89-22.27-28.27l0-151.16h76.93l0,151.05
				C938.63,1555.45,929.4,1567.23,916.28,1570.43z"/>
			
				<linearGradient id="SVGID_00000092418046636432721190000004677253670386019504_" gradientUnits="userSpaceOnUse" x1="1648.8751" y1="1711.3845" x2="1637.8652" y2="1444.3979">
				<stop  offset="0" style="stop-color:#09005D"/>
				<stop  offset="1" style="stop-color:#1A0F91"/>
			</linearGradient>
			<path style="fill:url(#SVGID_00000092418046636432721190000004677253670386019504_);" d="M1515.5,1616.88l4.51-48.27
				c5.09-11.53,15.66-19.68,28.15-21.67c46.7-7.43,162.51-20.5,218.28,21.17l8.33,56.1L1515.5,1616.88z"/>
			
				<linearGradient id="SVGID_00000063596699942790761130000004292257117906249915_" gradientUnits="userSpaceOnUse" x1="1632.9346" y1="1287.8441" x2="1687.9829" y2="2053.0176">
				<stop  offset="0" style="stop-color:#09005D"/>
				<stop  offset="1" style="stop-color:#1A0F91"/>
			</linearGradient>
			<path style="fill:url(#SVGID_00000063596699942790761130000004292257117906249915_);" d="M1661.37,1570.43
				c-10.75,2.62-21.52,2.61-32.31-0.04c-13.06-3.21-22.27-14.89-22.27-28.27l0-167.09h76.93l0,166.97
				C1683.72,1555.45,1674.49,1567.23,1661.37,1570.43z"/>
			
				<linearGradient id="SVGID_00000173125752990766230040000001818386275366170256_" gradientUnits="userSpaceOnUse" x1="1327.3881" y1="915.2272" x2="1253.0718" y2="1460.2111">
				<stop  offset="0" style="stop-color:#4F52FF"/>
				<stop  offset="1" style="stop-color:#4042E2"/>
			</linearGradient>
			<path style="fill:url(#SVGID_00000173125752990766230040000001818386275366170256_);" d="M853.89,1428.01l827.29-27.39
				c18.86-0.62,34.87-14.23,38.1-32.74c4.53-25.9,8.53-64.67,2.57-104.86c-6.77-45.71-46.09-79.66-92.49-80.76
				c-154.33-3.67-547.22-3.56-763.77,82.1c-22.9,9.06-39.89,28.63-45.69,52.47c-5.53,22.74-9.21,53.1-1.98,84.01
				C821.77,1417.26,836.96,1428.57,853.89,1428.01z"/>
			<path class="st3" d="M839.56,1385.02c-1.84,0-3.43-1.4-3.62-3.27c-0.13-1.31-3.14-32.41,4.95-62.35
				c6.15-22.75,24.15-41.04,46.98-47.74c46.09-13.52,134.16-36.51,206.11-38.53c2.02-0.06,3.68,1.53,3.74,3.54
				c0.06,2.01-1.53,3.68-3.54,3.74c-71.14,2-158.52,24.82-204.27,38.24c-20.41,5.99-36.5,22.33-42,42.66
				c-7.74,28.6-4.77,59.41-4.74,59.71c0.2,2-1.26,3.78-3.26,3.98C839.81,1385.01,839.69,1385.02,839.56,1385.02z"/>
			
				<linearGradient id="SVGID_00000116946231022936081150000002161211493593672589_" gradientUnits="userSpaceOnUse" x1="1349.8029" y1="1339.6538" x2="1077.3125" y2="3882.8992">
				<stop  offset="0" style="stop-color:#4F52FF"/>
				<stop  offset="1" style="stop-color:#4042E2"/>
			</linearGradient>
			<path style="fill:url(#SVGID_00000116946231022936081150000002161211493593672589_);" d="M386.57,1598.08
				c267.27-3.42,1423.48-15.57,1759.33,24.95c28.92,3.49,52.51,24.64,58.78,52.96c19.85,89.72,59.77,298.14,55.04,504.73
				c-0.64,28.11-21.26,51.84-49.02,57.09l-766.64,145.04h-272.32l-816.86-162.37c-28.79-5.72-50.02-30.11-51.51-59.3
				c-5.31-103.94-13.61-347.81,14.5-504.79C323.84,1623.03,352.53,1598.51,386.57,1598.08z"/>
			<path class="st5" d="M1437.76,2318.6h-10.92c-1,0-1.82-0.81-1.82-1.82c0-1.01,0.82-1.82,1.82-1.82h10.92
				c1.01,0,1.82,0.81,1.82,1.82C1439.58,2317.79,1438.76,2318.6,1437.76,2318.6z M1401.36,2318.6h-10.92c-1,0-1.82-0.81-1.82-1.82
				c0-1.01,0.82-1.82,1.82-1.82h10.92c1.01,0,1.82,0.81,1.82,1.82C1403.18,2317.79,1402.37,2318.6,1401.36,2318.6z M1364.97,2318.6
				h-10.92c-1,0-1.82-0.81-1.82-1.82c0-1.01,0.82-1.82,1.82-1.82h10.92c1.01,0,1.82,0.81,1.82,1.82
				C1366.79,2317.79,1365.97,2318.6,1364.97,2318.6z M1328.57,2318.6h-10.92c-1,0-1.82-0.81-1.82-1.82c0-1.01,0.82-1.82,1.82-1.82
				h10.92c1.01,0,1.82,0.81,1.82,1.82C1330.39,2317.79,1329.58,2318.6,1328.57,2318.6z M1292.18,2318.6h-10.92
				c-1,0-1.82-0.81-1.82-1.82c0-1.01,0.82-1.82,1.82-1.82h10.92c1.01,0,1.82,0.81,1.82,1.82
				C1294,2317.79,1293.18,2318.6,1292.18,2318.6z M1255.78,2318.6h-10.92c-1,0-1.82-0.81-1.82-1.82c0-1.01,0.82-1.82,1.82-1.82
				h10.92c1.01,0,1.82,0.81,1.82,1.82C1257.6,2317.79,1256.79,2318.6,1255.78,2318.6z M1219.39,2318.6h-10.92
				c-1,0-1.82-0.81-1.82-1.82c0-1.01,0.82-1.82,1.82-1.82h10.92c1.01,0,1.82,0.81,1.82,1.82
				C1221.21,2317.79,1220.39,2318.6,1219.39,2318.6z M1182.99,2318.6h-4.76l-11.06-2.16c-0.98-0.2-1.63-1.15-1.43-2.14
				c0.2-0.98,1.14-1.63,2.14-1.43l10.71,2.13l4.4-0.04c1.01,0,1.82,0.81,1.82,1.82C1184.81,2317.79,1184,2318.6,1182.99,2318.6z
				 M1462.79,2313.89c-0.86,0-1.62-0.61-1.79-1.48c-0.19-0.99,0.46-1.94,1.45-2.13l10.73-2.03c0.98-0.19,1.94,0.46,2.13,1.45
				c0.19,0.99-0.46,1.94-1.45,2.13l-10.73,2.03C1463.01,2313.88,1462.9,2313.89,1462.79,2313.89z M1142.54,2311.51
				c-0.12,0-0.24-0.01-0.36-0.04l-10.71-2.13c-0.98-0.2-1.63-1.15-1.43-2.14c0.2-0.98,1.14-1.64,2.14-1.43l10.71,2.13
				c0.98,0.2,1.63,1.15,1.43,2.14C1144.15,2310.91,1143.39,2311.51,1142.54,2311.51z M1498.55,2307.12c-0.86,0-1.62-0.61-1.79-1.48
				c-0.19-0.99,0.46-1.94,1.45-2.13l10.73-2.03c0.99-0.18,1.94,0.46,2.13,1.45c0.19,0.99-0.46,1.94-1.45,2.12l-10.73,2.03
				C1498.78,2307.11,1498.66,2307.12,1498.55,2307.12z M1106.85,2304.41c-0.12,0-0.24-0.01-0.36-0.04l-10.71-2.13
				c-0.98-0.2-1.63-1.15-1.43-2.14c0.19-0.99,1.14-1.64,2.14-1.43l10.71,2.13c0.98,0.2,1.63,1.15,1.43,2.14
				C1108.46,2303.81,1107.7,2304.41,1106.85,2304.41z M1534.31,2300.36c-0.86,0-1.62-0.61-1.79-1.48c-0.19-0.99,0.46-1.94,1.45-2.13
				l10.73-2.03c0.99-0.18,1.94,0.46,2.13,1.45c0.19,0.99-0.46,1.94-1.45,2.13l-10.73,2.03
				C1534.54,2300.35,1534.42,2300.36,1534.31,2300.36z M1071.15,2297.32c-0.12,0-0.24-0.01-0.36-0.04l-10.71-2.13
				c-0.98-0.2-1.63-1.15-1.43-2.14c0.2-0.98,1.14-1.64,2.14-1.43l10.71,2.13c0.98,0.2,1.63,1.15,1.43,2.14
				C1072.76,2296.72,1072,2297.32,1071.15,2297.32z M1570.07,2293.59c-0.86,0-1.62-0.61-1.79-1.48c-0.19-0.99,0.46-1.94,1.45-2.13
				l10.73-2.03c0.99-0.17,1.94,0.46,2.13,1.45c0.19,0.99-0.46,1.94-1.45,2.13l-10.73,2.03
				C1570.3,2293.58,1570.18,2293.59,1570.07,2293.59z M1035.45,2290.22c-0.12,0-0.24-0.01-0.36-0.04l-10.71-2.13
				c-0.98-0.2-1.63-1.15-1.43-2.14c0.2-0.98,1.14-1.63,2.14-1.43l10.71,2.13c0.98,0.2,1.63,1.15,1.43,2.14
				C1037.06,2289.62,1036.3,2290.22,1035.45,2290.22z M1605.83,2286.83c-0.86,0-1.62-0.61-1.79-1.48c-0.19-0.99,0.46-1.94,1.45-2.13
				l10.73-2.03c0.99-0.18,1.94,0.46,2.13,1.45c0.19,0.99-0.46,1.94-1.45,2.13l-10.73,2.03
				C1606.06,2286.82,1605.94,2286.83,1605.83,2286.83z M999.76,2283.13c-0.12,0-0.24-0.01-0.36-0.04l-10.71-2.13
				c-0.98-0.2-1.63-1.15-1.43-2.14c0.2-0.99,1.14-1.64,2.14-1.43l10.71,2.13c0.98,0.2,1.63,1.15,1.43,2.14
				C1001.37,2282.53,1000.61,2283.13,999.76,2283.13z M1641.59,2280.06c-0.86,0-1.62-0.61-1.79-1.48c-0.19-0.99,0.46-1.94,1.45-2.13
				l10.73-2.03c0.99-0.18,1.94,0.46,2.13,1.45c0.19,0.99-0.46,1.94-1.45,2.13l-10.73,2.03
				C1641.82,2280.05,1641.7,2280.06,1641.59,2280.06z M964.06,2276.03c-0.12,0-0.24-0.01-0.36-0.04l-10.71-2.13
				c-0.98-0.2-1.63-1.15-1.43-2.14c0.19-0.98,1.15-1.63,2.14-1.43l10.71,2.13c0.98,0.2,1.63,1.15,1.43,2.14
				C965.67,2275.43,964.91,2276.03,964.06,2276.03z M1677.35,2273.3c-0.86,0-1.62-0.61-1.79-1.48c-0.19-0.99,0.46-1.94,1.45-2.13
				l10.73-2.03c0.99-0.18,1.94,0.46,2.12,1.45c0.19,0.99-0.46,1.94-1.45,2.13l-10.73,2.03
				C1677.58,2273.29,1677.47,2273.3,1677.35,2273.3z M928.36,2268.94c-0.12,0-0.24-0.01-0.36-0.04l-10.71-2.13
				c-0.98-0.2-1.63-1.15-1.43-2.14c0.2-0.99,1.15-1.64,2.14-1.43l10.71,2.13c0.99,0.2,1.63,1.15,1.43,2.14
				C929.98,2268.34,929.21,2268.94,928.36,2268.94z M1713.11,2266.53c-0.86,0-1.62-0.61-1.79-1.48c-0.19-0.99,0.46-1.94,1.45-2.13
				l10.73-2.03c1-0.17,1.94,0.46,2.13,1.45c0.19,0.99-0.46,1.94-1.45,2.13l-10.73,2.03
				C1713.34,2266.52,1713.23,2266.53,1713.11,2266.53z M892.67,2261.84c-0.12,0-0.24-0.01-0.36-0.04l-10.71-2.13
				c-0.98-0.2-1.63-1.15-1.43-2.14c0.2-0.98,1.15-1.63,2.14-1.43l10.71,2.13c0.98,0.2,1.63,1.15,1.43,2.14
				C894.28,2261.24,893.52,2261.84,892.67,2261.84z M1748.87,2259.77c-0.86,0-1.62-0.61-1.79-1.48c-0.19-0.99,0.46-1.94,1.45-2.13
				l10.73-2.03c1-0.18,1.94,0.46,2.13,1.45c0.19,0.99-0.46,1.94-1.45,2.12l-10.73,2.03
				C1749.1,2259.75,1748.99,2259.77,1748.87,2259.77z M856.97,2254.74c-0.12,0-0.24-0.01-0.36-0.04l-10.71-2.13
				c-0.98-0.2-1.63-1.15-1.43-2.14c0.19-0.99,1.14-1.64,2.14-1.43l10.71,2.13c0.98,0.2,1.63,1.15,1.43,2.14
				C858.58,2254.15,857.82,2254.74,856.97,2254.74z M1784.63,2253c-0.86,0-1.62-0.61-1.79-1.48c-0.19-0.99,0.46-1.94,1.45-2.13
				l10.73-2.03c0.98-0.18,1.94,0.46,2.13,1.45c0.19,0.99-0.46,1.94-1.45,2.12l-10.73,2.03
				C1784.86,2252.99,1784.75,2253,1784.63,2253z M821.27,2247.65c-0.12,0-0.24-0.01-0.36-0.04l-10.71-2.13
				c-0.98-0.2-1.63-1.15-1.43-2.14c0.2-0.98,1.14-1.63,2.14-1.43l10.71,2.13c0.98,0.2,1.63,1.15,1.43,2.14
				C822.89,2247.05,822.13,2247.65,821.27,2247.65z M1820.4,2246.23c-0.86,0-1.62-0.61-1.79-1.48c-0.19-0.99,0.46-1.94,1.45-2.12
				l10.73-2.03c0.98-0.18,1.94,0.46,2.13,1.45c0.19,0.99-0.46,1.94-1.45,2.13l-10.73,2.03
				C1820.62,2246.22,1820.51,2246.23,1820.4,2246.23z M785.58,2240.55c-0.12,0-0.24-0.01-0.36-0.04l-10.71-2.13
				c-0.98-0.2-1.63-1.15-1.43-2.14c0.2-0.98,1.14-1.63,2.14-1.43l10.71,2.13c0.98,0.2,1.63,1.15,1.43,2.14
				C787.19,2239.95,786.43,2240.55,785.58,2240.55z M1856.16,2239.47c-0.86,0-1.62-0.61-1.79-1.48c-0.19-0.99,0.46-1.94,1.45-2.13
				l10.73-2.03c0.99-0.19,1.94,0.46,2.13,1.45c0.19,0.99-0.46,1.94-1.45,2.13l-10.73,2.03
				C1856.38,2239.46,1856.27,2239.47,1856.16,2239.47z M749.88,2233.46c-0.12,0-0.24-0.01-0.36-0.04l-10.71-2.13
				c-0.98-0.2-1.63-1.15-1.43-2.14c0.2-0.98,1.14-1.64,2.14-1.43l10.71,2.13c0.98,0.2,1.63,1.15,1.43,2.14
				C751.49,2232.86,750.73,2233.46,749.88,2233.46z M1891.92,2232.7c-0.86,0-1.62-0.61-1.79-1.48c-0.19-0.99,0.46-1.94,1.45-2.13
				l10.73-2.03c0.99-0.18,1.94,0.46,2.13,1.45c0.19,0.99-0.46,1.94-1.45,2.13l-10.73,2.03
				C1892.14,2232.69,1892.03,2232.7,1891.92,2232.7z M714.18,2226.36c-0.12,0-0.24-0.01-0.36-0.04l-10.71-2.13
				c-0.98-0.2-1.63-1.15-1.43-2.14c0.2-0.98,1.14-1.63,2.14-1.43l10.71,2.13c0.98,0.2,1.63,1.15,1.43,2.14
				C715.8,2225.76,715.04,2226.36,714.18,2226.36z M1927.68,2225.94c-0.86,0-1.62-0.61-1.79-1.48c-0.19-0.99,0.46-1.94,1.45-2.13
				l10.73-2.03c0.99-0.18,1.94,0.46,2.13,1.45c0.19,0.99-0.46,1.94-1.45,2.13l-10.73,2.03
				C1927.9,2225.93,1927.79,2225.94,1927.68,2225.94z M678.49,2219.27c-0.12,0-0.24-0.01-0.36-0.04l-10.71-2.13
				c-0.98-0.2-1.63-1.15-1.43-2.14c0.2-0.98,1.14-1.64,2.14-1.43l10.71,2.13c0.98,0.2,1.63,1.15,1.43,2.14
				C680.1,2218.67,679.34,2219.27,678.49,2219.27z M1963.44,2219.17c-0.86,0-1.62-0.61-1.79-1.48c-0.19-0.99,0.46-1.94,1.45-2.13
				l10.73-2.03c0.99-0.17,1.94,0.46,2.13,1.45c0.19,0.99-0.46,1.94-1.45,2.13l-10.73,2.03
				C1963.66,2219.16,1963.55,2219.17,1963.44,2219.17z M1999.2,2212.41c-0.86,0-1.62-0.61-1.79-1.48c-0.19-0.99,0.46-1.94,1.45-2.13
				l10.73-2.03c0.99-0.18,1.94,0.46,2.13,1.45c0.19,0.99-0.46,1.94-1.45,2.13l-10.73,2.03
				C1999.42,2212.4,1999.31,2212.41,1999.2,2212.41z M642.79,2212.17c-0.12,0-0.24-0.01-0.36-0.04l-10.71-2.13
				c-0.98-0.2-1.63-1.15-1.43-2.14c0.19-0.98,1.15-1.63,2.14-1.43l10.71,2.13c0.98,0.2,1.63,1.15,1.43,2.14
				C644.4,2211.57,643.64,2212.17,642.79,2212.17z M2034.96,2205.64c-0.86,0-1.62-0.61-1.79-1.48c-0.19-0.99,0.46-1.94,1.45-2.13
				l10.73-2.03c0.99-0.18,1.94,0.46,2.13,1.45c0.19,0.99-0.46,1.94-1.45,2.13l-10.73,2.03
				C2035.18,2205.63,2035.07,2205.64,2034.96,2205.64z M607.1,2205.08c-0.12,0-0.24-0.01-0.36-0.04l-10.71-2.13
				c-0.98-0.2-1.63-1.15-1.43-2.14c0.2-0.98,1.14-1.64,2.14-1.43l10.71,2.13c0.98,0.2,1.63,1.15,1.43,2.14
				C608.71,2204.48,607.95,2205.08,607.1,2205.08z M2070.72,2198.88c-0.86,0-1.62-0.61-1.79-1.48c-0.19-0.99,0.46-1.94,1.45-2.13
				l10.73-2.03c1-0.18,1.94,0.46,2.12,1.45c0.19,0.99-0.46,1.94-1.45,2.13l-10.73,2.03
				C2070.94,2198.87,2070.83,2198.88,2070.72,2198.88z M571.4,2197.98c-0.12,0-0.24-0.01-0.36-0.04l-10.71-2.13
				c-0.98-0.2-1.63-1.15-1.43-2.14c0.2-0.98,1.15-1.63,2.14-1.43l10.71,2.13c0.98,0.2,1.63,1.15,1.43,2.14
				C573.01,2197.38,572.25,2197.98,571.4,2197.98z M2106.48,2192.11c-0.86,0-1.62-0.61-1.79-1.48c-0.19-0.99,0.46-1.94,1.45-2.13
				l10.73-2.03c0.98-0.17,1.94,0.46,2.13,1.45c0.19,0.99-0.46,1.94-1.45,2.13l-10.73,2.03
				C2106.7,2192.1,2106.59,2192.11,2106.48,2192.11z M535.7,2190.88c-0.12,0-0.24-0.01-0.36-0.04l-10.71-2.13
				c-0.98-0.2-1.63-1.15-1.43-2.14c0.19-0.98,1.14-1.64,2.14-1.43l10.71,2.13c0.98,0.2,1.63,1.15,1.43,2.14
				C537.31,2190.28,536.55,2190.88,535.7,2190.88z M2142.24,2185.35c-0.86,0-1.62-0.61-1.79-1.48c-0.19-0.99,0.46-1.94,1.45-2.13
				l10.73-2.03c0.98-0.18,1.94,0.46,2.13,1.45c0.19,0.99-0.46,1.94-1.45,2.13l-10.73,2.03
				C2142.46,2185.34,2142.35,2185.35,2142.24,2185.35z M500.01,2183.79c-0.12,0-0.24-0.01-0.36-0.04l-10.71-2.13
				c-0.98-0.2-1.63-1.15-1.43-2.14c0.2-0.98,1.14-1.63,2.14-1.43l10.71,2.13c0.98,0.2,1.63,1.15,1.43,2.14
				C501.62,2183.19,500.86,2183.79,500.01,2183.79z M2178,2178.58c-0.86,0-1.62-0.61-1.79-1.48c-0.19-0.99,0.46-1.94,1.45-2.13
				l10.73-2.03c0.99-0.18,1.94,0.46,2.13,1.45c0.19,0.99-0.46,1.94-1.45,2.13l-10.73,2.03
				C2178.23,2178.57,2178.11,2178.58,2178,2178.58z M464.31,2176.69c-0.12,0-0.24-0.01-0.36-0.04l-10.71-2.13
				c-0.98-0.2-1.63-1.15-1.43-2.14c0.2-0.99,1.14-1.64,2.14-1.43l10.71,2.13c0.98,0.2,1.63,1.15,1.43,2.14
				C465.92,2176.09,465.16,2176.69,464.31,2176.69z M428.61,2169.6c-0.12,0-0.24-0.01-0.36-0.04l-10.71-2.13
				c-0.98-0.2-1.63-1.15-1.43-2.14c0.2-0.98,1.14-1.63,2.14-1.43l10.71,2.13c0.98,0.2,1.63,1.15,1.43,2.14
				C430.22,2169,429.46,2169.6,428.61,2169.6z M392.92,2162.5c-0.12,0-0.24-0.01-0.36-0.04l-10.71-2.13
				c-0.98-0.2-1.63-1.15-1.43-2.14c0.19-0.98,1.14-1.64,2.14-1.43l10.71,2.13c0.98,0.2,1.63,1.15,1.43,2.14
				C394.53,2161.9,393.77,2162.5,392.92,2162.5z M2194.02,2155.27C2194.02,2155.27,2194.02,2155.27,2194.02,2155.27
				c-1.01,0-1.82-0.82-1.82-1.83l0.01-6.59l-0.01-4.31c0-1.01,0.81-1.82,1.81-1.82h0c1,0,1.82,0.81,1.82,1.81l0.01,4.32l-0.01,6.61
				C2195.84,2154.45,2195.03,2155.27,2194.02,2155.27z M368.64,2145.54c-0.96,0-1.77-0.76-1.82-1.73c-0.17-3.5-0.34-7.15-0.5-10.92
				c-0.04-1,0.73-1.85,1.74-1.9c1.02-0.03,1.86,0.73,1.9,1.74c0.17,3.76,0.34,7.4,0.5,10.9c0.05,1-0.73,1.86-1.73,1.91
				C368.7,2145.54,368.67,2145.54,368.64,2145.54z M2193.74,2118.87c-0.99,0-1.8-0.79-1.82-1.78c-0.07-3.64-0.15-7.27-0.25-10.89
				c-0.03-1.01,0.77-1.84,1.77-1.87c1.1-0.07,1.84,0.77,1.87,1.77c0.09,3.64,0.18,7.27,0.25,10.92c0.02,1-0.78,1.84-1.78,1.86
				C2193.77,2118.87,2193.76,2118.87,2193.74,2118.87z M367.08,2109.17c-0.97,0-1.78-0.77-1.82-1.75l-0.41-10.92
				c-0.04-1,0.75-1.85,1.75-1.88c0.96-0.04,1.85,0.75,1.88,1.75l0.41,10.91c0.04,1-0.74,1.85-1.75,1.89
				C367.13,2109.17,367.1,2109.17,367.08,2109.17z M2192.64,2082.52c-0.97,0-1.78-0.77-1.82-1.75c-0.15-3.63-0.31-7.25-0.48-10.87
				c-0.05-1,0.73-1.86,1.73-1.9c1-0.08,1.86,0.72,1.9,1.73c0.17,3.63,0.33,7.26,0.48,10.89c0.04,1-0.74,1.85-1.74,1.89
				C2192.69,2082.52,2192.66,2082.52,2192.64,2082.52z M365.83,2072.79c-0.98,0-1.79-0.78-1.82-1.76l-0.32-10.92
				c-0.03-1.01,0.76-1.84,1.77-1.87c1.03,0.02,1.84,0.76,1.87,1.77l0.32,10.91c0.03,1-0.76,1.84-1.76,1.87
				C365.86,2072.79,365.84,2072.79,365.83,2072.79z M2190.77,2046.19c-0.95,0-1.76-0.74-1.81-1.71c-0.22-3.64-0.46-7.27-0.7-10.89
				c-0.07-1,0.69-1.87,1.69-1.94c1.04-0.02,1.87,0.69,1.94,1.69c0.24,3.63,0.48,7.26,0.7,10.91c0.06,1-0.7,1.87-1.7,1.93
				C2190.84,2046.19,2190.8,2046.19,2190.77,2046.19z M364.89,2036.4c-0.99,0-1.8-0.79-1.82-1.78l-0.22-10.93
				c-0.02-1,0.78-1.83,1.79-1.85c0.96-0.08,1.83,0.78,1.85,1.79l0.22,10.91c0.02,1.01-0.78,1.84-1.78,1.86
				C364.91,2036.4,364.9,2036.4,364.89,2036.4z M2188.19,2009.87c-0.94,0-1.74-0.72-1.81-1.67c-0.29-3.64-0.59-7.26-0.9-10.88
				c-0.09-1,0.66-1.88,1.66-1.97c0.98-0.12,1.88,0.66,1.97,1.66c0.31,3.62,0.61,7.25,0.91,10.89c0.08,1-0.67,1.88-1.67,1.96
				C2188.29,2009.87,2188.24,2009.87,2188.19,2009.87z M364.28,2000.01c-0.99,0-1.81-0.8-1.82-1.8l-0.12-10.93
				c-0.01-1,0.8-1.83,1.8-1.84c0.01,0,0.01,0,0.02,0c1,0,1.81,0.8,1.82,1.8l0.12,10.91c0.01,1-0.79,1.83-1.8,1.84
				C364.3,2000.01,364.29,2000.01,364.28,2000.01z M2184.95,1973.61c-0.93,0-1.72-0.7-1.81-1.64c-0.36-3.63-0.72-7.25-1.09-10.86
				c-0.1-1,0.63-1.89,1.62-2c1.01-0.1,1.89,0.62,2,1.62c0.37,3.61,0.74,7.24,1.09,10.87c0.1,1-0.63,1.89-1.63,1.99
				C2185.07,1973.6,2185.01,1973.61,2184.95,1973.61z M364.03,1963.6c-1,0-1.82-0.81-1.82-1.82l-0.01-6.25l0-4.66
				c0-1,0.82-1.82,1.82-1.82h0c1.01,0,1.82,0.81,1.82,1.82l0,4.67l0.01,6.24C365.85,1962.79,365.04,1963.6,364.03,1963.6
				C364.03,1963.6,364.03,1963.6,364.03,1963.6z M2181.11,1937.4c-0.91,0-1.7-0.68-1.81-1.61c-0.42-3.63-0.84-7.25-1.27-10.84
				c-0.12-1,0.59-1.9,1.59-2.02c1.03-0.14,1.91,0.59,2.02,1.59c0.43,3.6,0.85,7.22,1.27,10.86c0.12,1-0.6,1.9-1.6,2.02
				C2181.24,1937.4,2181.18,1937.4,2181.11,1937.4z M364.16,1927.22c-0.01,0-0.01,0-0.02,0c-1-0.01-1.81-0.83-1.8-1.84
				c0.03-3.63,0.07-7.26,0.12-10.91c0.01-1,0.82-1.8,1.82-1.8c0.01,0,0.01,0,0.02,0c1,0.01,1.81,0.84,1.8,1.84
				c-0.05,3.64-0.09,7.28-0.12,10.9C365.97,1926.42,365.16,1927.22,364.16,1927.22z M2176.67,1901.26c-0.9,0-1.68-0.67-1.8-1.58
				c-0.47-3.63-0.95-7.24-1.44-10.82c-0.13-1,0.57-1.91,1.56-2.05c1.02-0.14,1.91,0.57,2.05,1.56c0.48,3.58,0.96,7.2,1.44,10.83
				c0.13,1-0.57,1.91-1.57,2.04C2176.83,1901.25,2176.75,1901.26,2176.67,1901.26z M364.72,1890.84c-0.01,0-0.03,0-0.04,0
				c-1-0.02-1.8-0.85-1.78-1.86c0.08-3.64,0.17-7.28,0.26-10.92c0.02-1.01,0.83-1.86,1.87-1.77c1,0.03,1.8,0.86,1.77,1.87
				c-0.09,3.64-0.18,7.27-0.26,10.91C366.52,1890.06,365.71,1890.84,364.72,1890.84z M2171.69,1865.19c-0.89,0-1.67-0.65-1.8-1.56
				c-0.53-3.63-1.06-7.23-1.6-10.8c-0.15-0.99,0.54-1.92,1.53-2.07c1-0.13,1.92,0.54,2.07,1.53c0.54,3.57,1.07,7.18,1.6,10.81
				c0.15,1-0.54,1.92-1.54,2.06C2171.87,1865.19,2171.78,1865.19,2171.69,1865.19z M365.78,1854.46c-0.02,0-0.04,0-0.07,0
				c-1-0.04-1.79-0.88-1.75-1.88c0.13-3.65,0.27-7.29,0.42-10.93c0.04-1.01,0.97-1.78,1.89-1.74c1,0.04,1.78,0.89,1.74,1.89
				c-0.15,3.63-0.29,7.27-0.42,10.91C367.56,1853.69,366.75,1854.46,365.78,1854.46z M2166.18,1829.2c-0.88,0-1.65-0.64-1.79-1.53
				c-0.58-3.63-1.17-7.23-1.76-10.77c-0.16-0.99,0.51-1.93,1.5-2.09c1.01-0.17,1.93,0.51,2.09,1.5c0.59,3.55,1.18,7.15,1.76,10.79
				c0.16,0.99-0.52,1.93-1.51,2.09C2166.37,1829.2,2166.27,1829.2,2166.18,1829.2z M367.39,1818.06c-0.03,0-0.07,0-0.1,0
				c-1-0.05-1.78-0.91-1.72-1.91c0.2-3.65,0.4-7.3,0.61-10.93c0.06-1,0.9-1.77,1.92-1.71c1,0.06,1.77,0.92,1.71,1.92
				c-0.21,3.63-0.42,7.27-0.61,10.91C369.15,1817.31,368.35,1818.06,367.39,1818.06z M2160.14,1793.29c-0.87,0-1.64-0.62-1.79-1.5
				c-0.64-3.64-1.27-7.22-1.91-10.75c-0.18-0.99,0.48-1.94,1.47-2.11c0.99-0.18,1.94,0.48,2.11,1.47c0.63,3.53,1.27,7.12,1.91,10.76
				c0.17,0.99-0.49,1.93-1.48,2.11C2160.35,1793.28,2160.24,1793.29,2160.14,1793.29z M369.67,1781.71c-0.04,0-0.09,0-0.14-0.01
				c-1-0.07-1.76-0.95-1.68-1.95c0.27-3.65,0.54-7.28,0.83-10.9c0.08-1,0.93-1.72,1.96-1.67c1,0.08,1.75,0.96,1.67,1.96
				c-0.29,3.61-0.57,7.23-0.83,10.88C371.42,1780.98,370.62,1781.71,369.67,1781.71z M2153.59,1757.47c-0.86,0-1.62-0.61-1.79-1.48
				c-0.7-3.66-1.38-7.23-2.06-10.72c-0.19-0.99,0.45-1.94,1.44-2.13c0.97-0.21,1.94,0.45,2.13,1.44c0.68,3.5,1.37,7.07,2.07,10.74
				c0.19,0.99-0.46,1.94-1.45,2.13C2153.81,1757.46,2153.7,1757.47,2153.59,1757.47z M372.76,1745.44c-0.06,0-0.12,0-0.18-0.01
				c-1-0.1-1.73-0.99-1.63-1.99c0.36-3.65,0.73-7.28,1.11-10.88c0.11-1,0.98-1.72,2-1.62c1,0.11,1.72,1,1.62,2
				c-0.38,3.59-0.75,7.21-1.11,10.85C374.47,1744.74,373.68,1745.44,372.76,1745.44z M2146.51,1721.75c-0.85,0-1.6-0.59-1.78-1.45
				c-0.76-3.71-1.51-7.27-2.23-10.69c-0.21-0.98,0.42-1.95,1.4-2.16c0.99-0.2,1.95,0.42,2.16,1.4c0.72,3.42,1.47,6.99,2.24,10.71
				c0.2,0.98-0.43,1.95-1.41,2.15C2146.75,1721.74,2146.63,1721.75,2146.51,1721.75z M376.86,1709.27c-0.08,0-0.16-0.01-0.24-0.02
				c-1-0.13-1.7-1.04-1.57-2.04c0.47-3.65,0.97-7.26,1.47-10.85c0.14-0.99,1.06-1.67,2.06-1.55c0.99,0.14,1.69,1.06,1.55,2.06
				c-0.51,3.57-1,7.17-1.47,10.8C378.54,1708.6,377.76,1709.27,376.86,1709.27z M2134.84,1690.05c-0.07,0-0.14,0-0.21-0.01
				c-3.51-0.41-7.12-0.82-10.83-1.22c-1-0.11-1.72-1.01-1.61-2.01c0.11-1,0.98-1.72,2.01-1.61c3.73,0.41,7.35,0.82,10.86,1.23
				c1,0.12,1.71,1.02,1.6,2.02C2136.53,1689.37,2135.75,1690.05,2134.84,1690.05z M2098.64,1686.28c-0.06,0-0.11,0-0.17-0.01
				c-3.55-0.33-7.17-0.65-10.87-0.98c-1-0.09-1.74-0.97-1.65-1.97c0.09-1,0.98-1.73,1.97-1.65c3.7,0.32,7.33,0.65,10.88,0.98
				c1,0.09,1.74,0.98,1.65,1.98C2100.36,1685.57,2099.57,1686.28,2098.64,1686.28z M2062.37,1683.23c-0.05,0-0.09,0-0.14-0.01
				c-3.57-0.27-7.2-0.55-10.88-0.81c-1-0.07-1.76-0.94-1.68-1.95c0.07-1,0.96-1.74,1.95-1.68c3.69,0.27,7.32,0.54,10.9,0.81
				c1,0.08,1.75,0.95,1.68,1.95C2064.11,1682.5,2063.31,1683.23,2062.37,1683.23z M2026.06,1680.66c-0.04,0-0.08,0-0.12,0
				l-10.89-0.7c-1-0.06-1.76-0.93-1.7-1.93c0.06-1,0.88-1.74,1.93-1.7l10.9,0.7c1,0.07,1.76,0.93,1.7,1.94
				C2027.81,1679.92,2027.01,1680.66,2026.06,1680.66z M1989.73,1678.45c-0.04,0-0.07,0-0.1,0l-10.9-0.61
				c-1-0.05-1.77-0.91-1.72-1.92c0.05-1.01,0.91-1.75,1.92-1.72l10.91,0.61c1,0.05,1.77,0.92,1.71,1.92
				C1991.49,1677.7,1990.69,1678.45,1989.73,1678.45z M1953.38,1676.52c-0.03,0-0.06,0-0.09,0l-10.9-0.53
				c-1-0.05-1.78-0.9-1.73-1.91c0.05-1,0.92-1.78,1.9-1.73l10.91,0.53c1,0.05,1.78,0.9,1.73,1.91
				C1955.15,1675.76,1954.34,1676.52,1953.38,1676.52z M1917.02,1674.81c-0.03,0-0.05,0-0.08,0l-10.91-0.47
				c-1-0.04-1.78-0.89-1.74-1.9c0.04-1,0.94-1.77,1.9-1.74l10.91,0.47c1,0.04,1.78,0.89,1.74,1.9
				C1918.8,1674.05,1917.99,1674.81,1917.02,1674.81z M1880.66,1673.3c-0.02,0-0.05,0-0.07,0l-10.91-0.42
				c-1-0.04-1.79-0.88-1.75-1.89c0.04-1.01,0.96-1.83,1.89-1.75l10.91,0.42c1,0.04,1.79,0.89,1.75,1.89
				C1882.44,1672.53,1881.63,1673.3,1880.66,1673.3z M382.29,1673.28c-0.1,0-0.21-0.01-0.31-0.03c-0.99-0.17-1.65-1.11-1.48-2.1
				l0.61-3.43c0.56-3.14,3.15-5.36,6.29-5.4l0.95-0.01c1.11-0.14,1.83,0.78,1.85,1.79c0.02,1-0.79,1.83-1.79,1.85l-0.95,0.01
				c-1.4,0.02-2.51,0.98-2.76,2.4l-0.6,3.42C383.92,1672.65,383.16,1673.28,382.29,1673.28z M1844.29,1671.94c-0.02,0-0.04,0-0.07,0
				l-10.91-0.38c-1.01-0.03-1.79-0.88-1.76-1.88c0.04-1,0.88-1.83,1.88-1.76l10.91,0.38c1,0.04,1.79,0.88,1.75,1.88
				C1846.07,1671.17,1845.26,1671.94,1844.29,1671.94z M1807.91,1670.72c-0.02,0-0.04,0-0.06,0l-10.91-0.34
				c-1-0.03-1.79-0.87-1.76-1.87c0.03-1,0.85-1.74,1.88-1.76l10.91,0.34c1,0.03,1.79,0.87,1.76,1.88
				C1809.7,1669.94,1808.89,1670.72,1807.91,1670.72z M1771.53,1669.61c-0.02,0-0.04,0-0.05,0l-10.91-0.31
				c-1.01-0.03-1.8-0.87-1.77-1.87c0.03-1.01,0.86-1.85,1.87-1.77l10.92,0.31c1,0.03,1.8,0.87,1.77,1.87
				C1773.32,1668.83,1772.51,1669.61,1771.53,1669.61z M1735.15,1668.62c-0.02,0-0.03,0-0.05,0l-10.91-0.28
				c-1-0.03-1.8-0.86-1.77-1.87c0.03-1,0.7-1.74,1.87-1.77l10.92,0.28c1,0.03,1.8,0.86,1.77,1.87
				C1736.94,1667.84,1736.13,1668.62,1735.15,1668.62z M1698.76,1667.72c-0.01,0-0.03,0-0.04,0l-10.91-0.25
				c-1.01-0.02-1.8-0.86-1.78-1.86c0.02-1,0.71-1.78,1.86-1.78l10.92,0.25c1,0.02,1.8,0.86,1.78,1.86
				C1700.56,1666.93,1699.74,1667.72,1698.76,1667.72z M1662.37,1666.91c-0.01,0-0.03,0-0.04,0l-10.91-0.23
				c-1-0.02-1.8-0.85-1.78-1.86c0.02-1.01,0.95-1.81,1.86-1.78l10.92,0.23c1,0.02,1.8,0.85,1.78,1.86
				C1664.17,1666.12,1663.36,1666.91,1662.37,1666.91z M1625.98,1666.17c-0.01,0-0.02,0-0.04,0l-10.92-0.21
				c-1-0.02-1.8-0.85-1.79-1.85c0.02-1,0.79-1.89,1.85-1.79l10.92,0.21c1,0.02,1.8,0.85,1.78,1.86
				C1627.78,1665.38,1626.97,1666.17,1625.98,1666.17z M413.86,1665.62c-1,0-1.81-0.8-1.82-1.8c-0.01-1,0.79-1.83,1.8-1.84
				l10.92-0.13c0.86-0.02,1.83,0.79,1.84,1.8c0.01,1-0.79,1.83-1.8,1.84l-10.92,0.13C413.87,1665.62,413.86,1665.62,413.86,1665.62z
				 M1589.59,1665.51c-0.01,0-0.02,0-0.03,0l-10.91-0.18c-1-0.02-1.81-0.84-1.79-1.85c0.02-1,0.83-1.79,1.82-1.79
				c0.01,0,0.02,0,0.03,0l10.92,0.18c1,0.02,1.81,0.85,1.79,1.85C1591.4,1664.72,1590.58,1665.51,1589.59,1665.51z M450.27,1665.19
				c-0.99,0-1.81-0.8-1.82-1.8c-0.01-1.01,0.79-1.83,1.8-1.84l10.92-0.12c1.03-0.1,1.83,0.79,1.84,1.8c0.01,1.01-0.79,1.83-1.8,1.84
				l-10.92,0.12C450.29,1665.19,450.28,1665.19,450.27,1665.19z M1553.2,1664.92c-0.01,0-0.02,0-0.03,0l-10.92-0.17
				c-1.01-0.02-1.81-0.84-1.79-1.85c0.02-1.01,0.73-1.85,1.85-1.79l10.92,0.17c1,0.02,1.81,0.84,1.79,1.85
				C1555.01,1664.12,1554.2,1664.92,1553.2,1664.92z M486.69,1664.79c-1,0-1.81-0.8-1.82-1.8c-0.01-1,0.79-1.83,1.8-1.84l10.92-0.12
				c1.11,0.04,1.83,0.8,1.84,1.8c0.01,1-0.8,1.83-1.8,1.84l-10.92,0.12C486.7,1664.79,486.69,1664.79,486.69,1664.79z
				 M523.1,1664.41c-1,0-1.81-0.8-1.82-1.8c-0.01-1,0.8-1.83,1.8-1.84l10.92-0.11c1.12,0.07,1.83,0.8,1.84,1.8
				c0.01,1-0.8,1.83-1.8,1.84l-10.92,0.11C523.11,1664.41,523.1,1664.41,523.1,1664.41z M1516.81,1664.38c-0.01,0-0.02,0-0.03,0
				l-10.92-0.15c-1-0.01-1.81-0.84-1.79-1.84c0.01-1,0.83-1.79,1.82-1.79c0.01,0,0.02,0,0.02,0l10.92,0.15
				c1.01,0.01,1.81,0.84,1.8,1.84C1518.61,1663.59,1517.8,1664.38,1516.81,1664.38z M559.51,1664.06c-1,0-1.81-0.8-1.82-1.8
				c-0.01-1.01,0.8-1.83,1.8-1.84l10.92-0.1c1.12,0.09,1.83,0.8,1.84,1.8c0.01,1-0.8,1.83-1.8,1.84l-10.92,0.1
				C559.52,1664.06,559.51,1664.06,559.51,1664.06z M1480.42,1663.91c-0.01,0-0.01,0-0.02,0l-10.92-0.13c-1-0.01-1.81-0.84-1.8-1.84
				c0.01-1.01,0.79-1.89,1.84-1.8l10.92,0.13c1,0.01,1.81,0.84,1.8,1.84C1482.22,1663.11,1481.41,1663.91,1480.42,1663.91z
				 M595.92,1663.72c-1,0-1.81-0.81-1.82-1.8c-0.01-1,0.8-1.83,1.8-1.84l10.92-0.1c0.01,0,0.01,0,0.02,0c1,0,1.81,0.81,1.82,1.8
				c0.01,1.01-0.8,1.83-1.8,1.84l-10.92,0.1C595.93,1663.72,595.92,1663.72,595.92,1663.72z M1444.02,1663.48c-0.01,0-0.01,0-0.02,0
				l-10.92-0.12c-1-0.01-1.81-0.83-1.8-1.84c0.01-1.01,0.89-1.85,1.84-1.8l10.92,0.12c1.01,0.01,1.81,0.84,1.8,1.84
				C1445.83,1662.68,1445.02,1663.48,1444.02,1663.48z M632.32,1663.42c-1,0-1.81-0.8-1.82-1.8c-0.01-1.01,0.8-1.83,1.8-1.84
				l10.92-0.09c0.01,0,0.01,0,0.01,0c1,0,1.81,0.8,1.82,1.81c0.01,1.01-0.8,1.83-1.81,1.83l-10.92,0.09
				C632.33,1663.42,632.33,1663.42,632.32,1663.42z M668.73,1663.13c-1,0-1.81-0.81-1.82-1.81c-0.01-1,0.8-1.83,1.81-1.83
				l10.92-0.08c0.01,0,0.01,0,0.01,0c1,0,1.81,0.8,1.82,1.81c0.01,1.01-0.8,1.83-1.81,1.83l-10.92,0.08
				C668.74,1663.13,668.73,1663.13,668.73,1663.13z M1407.63,1663.11c-0.01,0-0.01,0-0.02,0l-10.92-0.1
				c-1.01-0.01-1.81-0.83-1.8-1.84c0.01-1,0.82-1.8,1.82-1.8c0.01,0,0.01,0,0.02,0l10.92,0.1c1.01,0.01,1.81,0.83,1.8,1.84
				C1409.44,1662.3,1408.63,1663.11,1407.63,1663.11z M705.14,1662.87c-1,0-1.81-0.81-1.82-1.81c-0.01-1,0.8-1.83,1.81-1.83
				l10.92-0.07c0.99-0.09,1.82,0.8,1.83,1.81c0.01,1.01-0.8,1.82-1.81,1.83l-10.92,0.07
				C705.15,1662.87,705.14,1662.87,705.14,1662.87z M1371.23,1662.78c-0.01,0-0.01,0-0.02,0l-10.92-0.09
				c-1.01-0.01-1.81-0.83-1.81-1.83c0.01-1,0.82-1.81,1.82-1.81c0.01,0,0.01,0,0.01,0l10.92,0.09c1.01,0.01,1.81,0.83,1.81,1.84
				C1373.04,1661.98,1372.23,1662.78,1371.23,1662.78z M741.54,1662.63c-1,0-1.81-0.81-1.82-1.81c-0.01-1.01,0.8-1.83,1.81-1.83
				l10.92-0.07c0,0,0.01,0,0.01,0c1,0,1.81,0.81,1.82,1.81c0.01,1.01-0.8,1.83-1.81,1.83l-10.92,0.07
				C741.55,1662.63,741.55,1662.63,741.54,1662.63z M1334.84,1662.5c0,0-0.01,0-0.01,0l-10.92-0.08c-1-0.01-1.81-0.83-1.81-1.83
				c0.01-1.01,0.88-1.94,1.83-1.81l10.92,0.08c1.01,0.01,1.81,0.83,1.81,1.83C1336.65,1661.69,1335.84,1662.5,1334.84,1662.5z
				 M777.95,1662.41c-1,0-1.81-0.81-1.82-1.81c-0.01-1.01,0.8-1.82,1.81-1.83l10.92-0.06c0,0,0.01,0,0.01,0c1,0,1.81,0.81,1.82,1.81
				c0.01,1.01-0.8,1.83-1.81,1.83l-10.92,0.06C777.95,1662.41,777.95,1662.41,777.95,1662.41z M1298.45,1662.26c0,0-0.01,0-0.01,0
				l-10.92-0.06c-1-0.01-1.81-0.82-1.81-1.83c0.01-1,0.83-1.76,1.83-1.81l10.92,0.06c1.01,0.01,1.81,0.82,1.81,1.83
				C1300.26,1661.45,1299.45,1662.26,1298.45,1662.26z M814.35,1662.22c-1,0-1.81-0.81-1.82-1.81c-0.01-1.01,0.81-1.82,1.81-1.83
				l10.92-0.05c0,0,0.01,0,0.01,0c1,0,1.81,0.81,1.82,1.81c0.01,1.01-0.8,1.82-1.81,1.83L814.35,1662.22
				C814.36,1662.22,814.36,1662.22,814.35,1662.22z M1262.05,1662.06C1262.05,1662.06,1262.04,1662.06,1262.05,1662.06l-10.93-0.05
				c-1-0.01-1.82-0.82-1.81-1.83c0.01-1,0.82-1.81,1.82-1.81c0,0,0.01,0,0.01,0l10.92,0.05c1.01,0.01,1.82,0.82,1.81,1.83
				C1263.86,1661.25,1263.05,1662.06,1262.05,1662.06z M850.76,1662.05c-1,0-1.82-0.81-1.82-1.81c-0.01-1,0.81-1.82,1.81-1.83
				l10.92-0.04c0,0,0.01,0,0.01,0c1,0,1.82,0.81,1.82,1.81c0,1.01-0.81,1.82-1.81,1.83L850.76,1662.05
				C850.76,1662.05,850.76,1662.05,850.76,1662.05z M887.16,1661.9c-1,0-1.82-0.81-1.82-1.81c0-1,0.81-1.82,1.81-1.83l10.92-0.04
				c0,0,0.01,0,0.01,0c1,0,1.82,0.81,1.82,1.81c0,1-0.81,1.82-1.81,1.83L887.16,1661.9C887.17,1661.9,887.17,1661.9,887.16,1661.9z
				 M1225.65,1661.89L1225.65,1661.89l-10.93-0.04c-1.01,0-1.82-0.82-1.81-1.83c0-1,0.82-1.81,1.82-1.81c0,0,0.01,0,0.01,0
				l10.92,0.04c1.01,0,1.82,0.82,1.81,1.83C1227.47,1661.08,1226.66,1661.89,1225.65,1661.89z M923.57,1661.78
				c-1,0-1.82-0.81-1.82-1.81c0-1.01,0.81-1.82,1.81-1.83l10.92-0.03h0c1,0,1.82,0.81,1.82,1.81c0,1.01-0.81,1.82-1.81,1.82
				L923.57,1661.78L923.57,1661.78z M1189.26,1661.76L1189.26,1661.76l-10.92-0.03c-1.01,0-1.82-0.82-1.81-1.83
				c0-1,0.82-1.81,1.82-1.81h0.01l10.92,0.03c1.01,0,1.82,0.82,1.81,1.82C1191.08,1660.95,1190.26,1661.76,1189.26,1661.76z
				 M959.97,1661.69c-1,0-1.82-0.81-1.82-1.82c0-1.01,0.81-1.82,1.82-1.82l10.92-0.02h0c1.01,0,1.82,0.81,1.82,1.82
				c0,1.01-0.81,1.82-1.82,1.82L959.97,1661.69C959.97,1661.69,959.97,1661.69,959.97,1661.69z M1152.86,1661.67
				C1152.86,1661.67,1152.86,1661.67,1152.86,1661.67l-10.92-0.02c-1.01,0-1.82-0.82-1.82-1.82c0-1,0.82-1.82,1.82-1.82h0
				l10.92,0.02c1.01,0,1.82,0.82,1.82,1.82C1154.68,1660.86,1153.87,1661.67,1152.86,1661.67z M996.38,1661.62
				c-1,0-1.82-0.81-1.82-1.82c0-1,0.81-1.82,1.82-1.82l10.92-0.01c1.01,0,1.82,0.81,1.82,1.82c0,1-0.81,1.82-1.82,1.82
				L996.38,1661.62L996.38,1661.62z M1116.47,1661.61L1116.47,1661.61l-10.92-0.01c-1.01,0-1.82-0.82-1.82-1.82
				c0-1,0.82-1.82,1.82-1.82h0l10.92,0.01c1,0,1.82,0.82,1.82,1.82C1118.29,1660.8,1117.47,1661.61,1116.47,1661.61z
				 M1032.78,1661.59c-1.01,0-1.82-0.81-1.82-1.82c0-1,0.81-1.82,1.82-1.82l10.89-0.01c1.01,0,1.82,0.81,1.82,1.82
				c0,1-0.81,1.82-1.82,1.82L1032.78,1661.59z M1080.07,1661.58C1080.07,1661.58,1080.07,1661.58,1080.07,1661.58l-10.92,0
				c-1.01,0-1.82-0.81-1.82-1.82c0-1.01,0.81-1.82,1.82-1.82l10.92,0c1.01,0,1.82,0.82,1.82,1.82
				C1081.89,1660.77,1081.07,1661.58,1080.07,1661.58z"/>
			
				<linearGradient id="SVGID_00000166667254909369285670000018265644847911863439_" gradientUnits="userSpaceOnUse" x1="1090.5311" y1="2320.937" x2="1500.6328" y2="2320.937">
				<stop  offset="0" style="stop-color:#09005D"/>
				<stop  offset="1" style="stop-color:#1A0F91"/>
			</linearGradient>
			<path style="fill:url(#SVGID_00000166667254909369285670000018265644847911863439_);" d="M1418.42,2497.17h-238.58
				c-31.26,0-57.59-23.26-61.3-54.16l-27.56-229.57c-4.39-36.57,24.3-68.74,61.3-68.74h286.61c36.25,0,64.7,30.94,61.5,66.88
				l-20.47,229.57C1477.09,2472.86,1450.4,2497.17,1418.42,2497.17z"/>
			<defs>
				<filter id="Adobe_OpacityMaskFilter" filterUnits="userSpaceOnUse" x="1139.52" y="2186.68" width="312.13" height="268.27">
					<feFlood  style="flood-color:white;flood-opacity:1" result="back"/>
					<feBlend  in="SourceGraphic" in2="back" mode="normal"/>
				</filter>
			</defs>
			
				<mask maskUnits="userSpaceOnUse" x="1139.52" y="2186.68" width="312.13" height="268.27" id="SVGID_00000078016540925439809700000003631038820984753592_">
				<g class="st16">
					<defs>
						
							<filter id="Adobe_OpacityMaskFilter_00000112591645367323042970000002502444758473125287_" filterUnits="userSpaceOnUse" x="1139.52" y="2186.68" width="312.13" height="268.27">
							<feFlood  style="flood-color:white;flood-opacity:1" result="back"/>
							<feBlend  in="SourceGraphic" in2="back" mode="normal"/>
						</filter>
					</defs>
					
						<mask maskUnits="userSpaceOnUse" x="1139.52" y="2186.68" width="312.13" height="268.27" id="SVGID_00000078016540925439809700000003631038820984753592_">
						<g style="filter:url(#Adobe_OpacityMaskFilter_00000112591645367323042970000002502444758473125287_);">
						</g>
					</mask>
					
						<linearGradient id="SVGID_00000085216223490552636760000000032823933149384864_" gradientUnits="userSpaceOnUse" x1="1139.5154" y1="2320.8145" x2="1451.6482" y2="2320.8145">
						<stop  offset="0" style="stop-color:#FFFFFF"/>
						<stop  offset="1" style="stop-color:#000000"/>
					</linearGradient>
					
						<path style="mask:url(#SVGID_00000078016540925439809700000003631038820984753592_);fill:url(#SVGID_00000085216223490552636760000000032823933149384864_);" d="
						M1389.07,2454.95h-181.58c-23.8,0-43.84-17.7-46.66-41.22L1139.85,2239c-3.34-27.83,18.5-52.32,46.66-52.32h218.14
						c27.59,0,49.25,23.55,46.81,50.91l-15.58,174.73C1433.73,2436.45,1413.42,2454.95,1389.07,2454.95z"/>
				</g>
			</mask>
			
				<linearGradient id="SVGID_00000026157165015428651870000014424260028516604806_" gradientUnits="userSpaceOnUse" x1="465.365" y1="3543.2253" x2="1383.118" y2="2179.1316">
				<stop  offset="0" style="stop-color:#09005D"/>
				<stop  offset="1" style="stop-color:#1A0F91"/>
			</linearGradient>
			<path style="fill:url(#SVGID_00000026157165015428651870000014424260028516604806_);" d="M1389.07,2454.95h-181.58
				c-23.8,0-43.84-17.7-46.66-41.22L1139.85,2239c-3.34-27.83,18.5-52.32,46.66-52.32h218.14c27.59,0,49.25,23.55,46.81,50.91
				l-15.58,174.73C1433.73,2436.45,1413.42,2454.95,1389.07,2454.95z"/>
		</g>
		<g>
			
				<linearGradient id="SVGID_00000079459926211218419080000014787634065511069626_" gradientUnits="userSpaceOnUse" x1="-1081.7318" y1="3485.4902" x2="-1065.0142" y2="3903.4316" gradientTransform="matrix(-1 0 0 1 1168.9507 0)">
				<stop  offset="0" style="stop-color:#09005D"/>
				<stop  offset="1" style="stop-color:#1A0F91"/>
			</linearGradient>
			<path style="fill:url(#SVGID_00000079459926211218419080000014787634065511069626_);" d="M2303.35,2887.78
				c-55.76,2.57-109.74,0.95-145.78-0.9c32.81-23.36,108.41-74.17,171.67-94.4l43.42-2.6c0,0,14.71,22.38,19.97,73.59
				C2385.43,2872.45,2364.39,2884.97,2303.35,2887.78z"/>
			
				<linearGradient id="SVGID_00000069364073120969554420000002206507369416434071_" gradientUnits="userSpaceOnUse" x1="-1104.6904" y1="2891.0557" x2="-1104.6904" y2="1958.2125" gradientTransform="matrix(-1 0 0 1 1168.9507 0)">
				<stop  offset="0" style="stop-color:#09005D"/>
				<stop  offset="1" style="stop-color:#1A0F91"/>
			</linearGradient>
			<path style="fill:url(#SVGID_00000069364073120969554420000002206507369416434071_);" d="M2157.12,2887.2
				c0.14-0.1,0.3-0.21,0.45-0.32c36.04,1.85,90.02,3.46,145.78,0.9c61.04-2.81,82.08-15.33,89.28-24.31
				c0.24,2.36,0.49,4.7,0.69,7.18c0.9,11.24-7.44,21.11-18.68,21.96c-45.67,3.45-158.91,11.27-213.51,8.41
				C2153.92,2900.64,2151.24,2891.39,2157.12,2887.2z"/>
			
				<linearGradient id="SVGID_00000071521529634733815410000006718786227466465956_" gradientUnits="userSpaceOnUse" x1="-1564.0458" y1="3504.7839" x2="-1547.3281" y2="3922.7258" gradientTransform="matrix(-1 0 0 1 1168.9507 0)">
				<stop  offset="0" style="stop-color:#09005D"/>
				<stop  offset="1" style="stop-color:#1A0F91"/>
			</linearGradient>
			<path style="fill:url(#SVGID_00000071521529634733815410000006718786227466465956_);" d="M2702.19,2872.86
				c4.08-26.18,10.63-64.03,15.69-73.7c7.94-15.18,35.11,0,35.11,0s19.08,8.89,27.85,23.72c5.6,9.45,21.07,36.34,31.56,54.6
				c1.21,2.1,1.71,4.33,1.65,6.5l-108.8,3.81C2702.59,2883.51,2701.34,2878.31,2702.19,2872.86z"/>
			
				<linearGradient id="SVGID_00000107557584724320541420000006107377743311382151_" gradientUnits="userSpaceOnUse" x1="-1590.7031" y1="2891.0557" x2="-1590.7031" y2="1958.209" gradientTransform="matrix(-1 0 0 1 1168.9507 0)">
				<stop  offset="0" style="stop-color:#09005D"/>
				<stop  offset="1" style="stop-color:#1A0F91"/>
			</linearGradient>
			<path style="fill:url(#SVGID_00000107557584724320541420000006107377743311382151_);" d="M2814.06,2883.97
				c-0.18,6.22-5.11,11.85-12.06,12.04l-77.51,2.13c-8.19,0.23-15.28-4.03-19.23-10.37L2814.06,2883.97z"/>
			
				<linearGradient id="SVGID_00000181769835416177953720000014783725301876535706_" gradientUnits="userSpaceOnUse" x1="-1597.6852" y1="2762.7927" x2="-1524.9286" y2="2762.7927" gradientTransform="matrix(-1 0 0 1 1168.9507 0)">
				<stop  offset="0" style="stop-color:#FEBBBA"/>
				<stop  offset="1" style="stop-color:#FF928E"/>
			</linearGradient>
			<path style="fill:url(#SVGID_00000181769835416177953720000014783725301876535706_);" d="M2693.88,2712.15
				c0.94,3.14,15,71.3,21.15,101.21c1.7,8.27,9.15,14.07,17.58,13.65c4.6-0.23,9.96-0.64,15.58-1.37
				c9.97-1.29,17.56-9.61,17.94-19.65c1-26.2,1.49-76.51-8.13-96C2744.72,2683.08,2693.88,2712.15,2693.88,2712.15z"/>
			
				<linearGradient id="SVGID_00000171001485725358805700000017084100043278226357_" gradientUnits="userSpaceOnUse" x1="-1212.2482" y1="2758.03" x2="-1151.6077" y2="2758.03" gradientTransform="matrix(-1 0 0 1 1168.9507 0)">
				<stop  offset="0" style="stop-color:#FEBBBA"/>
				<stop  offset="1" style="stop-color:#FF928E"/>
			</linearGradient>
			<path style="fill:url(#SVGID_00000171001485725358805700000017084100043278226357_);" d="M2381.2,2731.66
				c-6.03-0.19,2.41,31.13-6.72,61.92c-2.06,6.94-7.25,12.4-14.49,12.49c-4.69,0.06-10.25-0.03-15.9-0.48
				c-8.49-0.68-15.32-7.27-16.11-15.75l-7.42-79.86L2381.2,2731.66z"/>
			
				<linearGradient id="SVGID_00000082365577068220679900000009648658620739211152_" gradientUnits="userSpaceOnUse" x1="2765.8472" y1="1158.5927" x2="2473.4082" y2="2380.3425">
				<stop  offset="0" style="stop-color:#09005D"/>
				<stop  offset="1" style="stop-color:#1A0F91"/>
			</linearGradient>
			<path style="fill:url(#SVGID_00000082365577068220679900000009648658620739211152_);" d="M2212.53,1882.74
				c2.69,13.1,97.69,567.2,103.45,853.92c0.1,4.81,3.63,8.84,8.4,9.5c12.06,1.68,35.55,3.84,58.32-0.38
				c3.12-0.58,5.47-3.15,5.67-6.31c3.32-53.43,30.02-505.19-2.68-717.85c0,0,270.11,568.48,311.05,725.23c1,3.81,4.5,6.38,8.43,6.17
				c11.57-0.61,35.63-2.69,54.73-9.72c6.85-2.52,10.75-9.72,9.02-16.8c-22.88-93.81-183.19-740.13-292.04-882.53L2212.53,1882.74z"
				/>
			
				<linearGradient id="SVGID_00000070823347107708028960000016982326404198050436_" gradientUnits="userSpaceOnUse" x1="-1061.4561" y1="1825.7512" x2="-1309.6465" y2="2146.6257" gradientTransform="matrix(-1 0 0 1 1168.9507 0)">
				<stop  offset="0" style="stop-color:#CB236D"/>
				<stop  offset="1" style="stop-color:#4C246D"/>
			</linearGradient>
			<path style="fill:url(#SVGID_00000070823347107708028960000016982326404198050436_);" d="M2385.69,2025.16
				c0.89,0,1.79-0.34,2.48-1.01c1.4-1.37,1.43-3.61,0.06-5.01l-36.17-36.99c-1.37-1.4-3.61-1.42-5.01-0.06s-1.42,3.62-0.06,5.01
				l36.17,36.99C2383.85,2024.81,2384.77,2025.16,2385.69,2025.16z"/>
			
				<linearGradient id="SVGID_00000114043420435256977450000016329327950014537613_" gradientUnits="userSpaceOnUse" x1="2057.8855" y1="5148.5527" x2="2409.7832" y2="5624.0908" gradientTransform="matrix(-0.9943 -0.107 -0.107 0.9943 1571.9513 20.535)">
				<stop  offset="0" style="stop-color:#09005D"/>
				<stop  offset="1" style="stop-color:#1A0F91"/>
			</linearGradient>
			<path style="fill:url(#SVGID_00000114043420435256977450000016329327950014537613_);" d="M2121.17,1167.69
				c80.81-12.15,239.41-29.55,342.87,0.8l-11.22,319.75l-374.81-40.41l-31.79-45.19
				C2046.22,1402.64,2060.94,1176.74,2121.17,1167.69z"/>
			
				<linearGradient id="SVGID_00000105416772812713348690000000765600221645585578_" gradientUnits="userSpaceOnUse" x1="-808.2551" y1="1130.7877" x2="-779.8921" y2="955.8823" gradientTransform="matrix(-0.9943 -0.107 -0.107 0.9943 1571.9513 20.535)">
				<stop  offset="0" style="stop-color:#FEBBBA"/>
				<stop  offset="1" style="stop-color:#FF928E"/>
			</linearGradient>
			<path style="fill:url(#SVGID_00000105416772812713348690000000765600221645585578_);" d="M2307.85,996.51
				c0,0,7.49,127.18,6.07,166.74c0,0-104.12,17.04-128.9-0.77l19.58-150.76L2307.85,996.51z"/>
			<g>
				
					<linearGradient id="SVGID_00000047739934642033680680000016913046772917860488_" gradientUnits="userSpaceOnUse" x1="-714.7226" y1="844.1425" x2="-907.9566" y2="991.9959" gradientTransform="matrix(-0.9943 -0.107 -0.107 0.9943 1571.9513 20.535)">
					<stop  offset="0" style="stop-color:#FEBBBA"/>
					<stop  offset="1" style="stop-color:#FF928E"/>
				</linearGradient>
				<path style="fill:url(#SVGID_00000047739934642033680680000016913046772917860488_);" d="M2206.64,869.14
					c0,0-41.92,73.59-48.54,113.87c-6.62,40.28-18.18,65.63,27.79,78.84s87.96-5.89,113.69-43.95c0,0,40.2-58.59,35.43-84.87
					C2330.24,906.74,2206.64,869.14,2206.64,869.14z"/>
				
					<linearGradient id="SVGID_00000173129327592367188400000001763739699892169099_" gradientUnits="userSpaceOnUse" x1="-850.4815" y1="727.4254" x2="-675.4977" y2="952.7165" gradientTransform="matrix(-0.9943 -0.107 -0.107 0.9943 1571.9513 20.535)">
					<stop  offset="0" style="stop-color:#09005D"/>
					<stop  offset="1" style="stop-color:#1A0F91"/>
				</linearGradient>
				<path style="fill:url(#SVGID_00000173129327592367188400000001763739699892169099_);" d="M2286.7,987.15l-5.92-0.64
					c0,0,29.8-47.43,9.3-58.54c-20.5-11.1-103.58-37.57-118.66-69.69c-14.54-30.96,5.26-66.8,29.96-74.76
					c1.56-0.5,3.25,0.39,3.85,1.91l1.56,3.91c1.06,2.67,4.84,2.69,5.93,0.03l0,0c1.04-2.53,4.61-2.72,5.8-0.26
					c4.64,9.62,18.25,25.91,58.19,37.82c56.67,16.89,92.37,44.41,89,84.46c-0.21,2.54,2.34,4.22,4.65,3.14
					c4.55-2.14,11.51-2.63,19.81,6.03c14.44,15.06,4.21,48.98-33.65,73.72c-1.8,1.18-2.06,3.76-0.4,5.12
					c5.87,4.79,14.22,15.57-11.55,25.97c-26.36,10.64-40.96,7.6-46.37,5.58c-1.46-0.54-2.32-2.02-2.06-3.55l6-35.17
					c0.31-1.82-0.98-3.52-2.81-3.72L2286.7,987.15z"/>
				
					<linearGradient id="SVGID_00000098900478432844825440000005400163909265623737_" gradientUnits="userSpaceOnUse" x1="-738.6921" y1="812.8198" x2="-931.9257" y2="960.6729" gradientTransform="matrix(-0.9943 -0.107 -0.107 0.9943 1571.9513 20.535)">
					<stop  offset="0" style="stop-color:#FEBBBA"/>
					<stop  offset="1" style="stop-color:#FF928E"/>
				</linearGradient>
				<path style="fill:url(#SVGID_00000098900478432844825440000005400163909265623737_);" d="M2284.44,994.4
					c0,0,18.13-47.94,38.76-31.73c20.62,16.21-17.42,54.02-35.4,53.96L2284.44,994.4z"/>
			</g>
			<g>
				
					<linearGradient id="SVGID_00000134211341898463348140000012463404000591923610_" gradientUnits="userSpaceOnUse" x1="4170.645" y1="4012.6323" x2="2923.0195" y2="5650.541" gradientTransform="matrix(0.1855 -0.9827 0.9827 0.1855 -2850.9875 4312.895)">
					<stop  offset="0" style="stop-color:#FF928E"/>
					<stop  offset="1" style="stop-color:#FE7062"/>
				</linearGradient>
				<path style="fill:url(#SVGID_00000134211341898463348140000012463404000591923610_);" d="M1835.5,1417.82l9.94-39.07
					c4.92-19.33,24.14-31.39,43.68-27.4l936.05,190.97c21.32,4.35,35.01,25.22,30.52,46.51l-57.07,270.51L1835.5,1417.82z"/>
				<path class="st1" d="M1746.75,1892.34l70.4-506c1.46-10.47,11.53-17.47,21.85-15.17l961.4,213.49
					c20.52,4.56,33.39,24.96,28.67,45.44l-80.69,349.76L1746.75,1892.34z"/>
				
					<linearGradient id="SVGID_00000158000915698169124730000014940221834673215654_" gradientUnits="userSpaceOnUse" x1="3806.1836" y1="4545.4717" x2="2985.0513" y2="4585.9956" gradientTransform="matrix(0.1855 -0.9827 0.9827 0.1855 -2850.9875 4312.895)">
					<stop  offset="0" style="stop-color:#DAE3FE"/>
					<stop  offset="1" style="stop-color:#E9EFFD"/>
				</linearGradient>
				<path style="fill:url(#SVGID_00000158000915698169124730000014940221834673215654_);" d="M1772.14,1869.41l26.97-451.64
					c0.69-11.61,11.55-19.89,22.93-17.48l971.51,205.58c13.7,2.9,22.72,16.02,20.53,29.85l-51.75,326.25L1772.14,1869.41z"/>
				
					<linearGradient id="SVGID_00000132081652713373018800000017352916931610120114_" gradientUnits="userSpaceOnUse" x1="2396.1472" y1="1652.6594" x2="1483.0679" y2="2672.7397">
					<stop  offset="0" style="stop-color:#FF928E"/>
					<stop  offset="1" style="stop-color:#FE7062"/>
				</linearGradient>
				<path style="fill:url(#SVGID_00000132081652713373018800000017352916931610120114_);" d="M1701.76,1976.17l61.16-489.19
					c3.05-24.38,26.03-41.14,50.18-36.58l996.21,188.03c20.2,3.81,33.49,23.28,29.68,43.48l-84.14,445.79
					c-3.97,21.03-23.7,35.29-44.91,32.46l-965.75-128.97C1717.34,2027.6,1698.41,2003.04,1701.76,1976.17z"/>
				
					<linearGradient id="SVGID_00000001625656138116710360000002529187055723723398_" gradientUnits="userSpaceOnUse" x1="2102.9709" y1="1390.2355" x2="1189.8915" y2="2410.3157">
					<stop  offset="0" style="stop-color:#FF928E"/>
					<stop  offset="1" style="stop-color:#FE7062"/>
				</linearGradient>
				<path style="fill:url(#SVGID_00000001625656138116710360000002529187055723723398_);" d="M2163.65,1516.56L2163.65,1516.56
					c-3.92,20.76-23.92,34.41-44.67,30.49l-222.12-41.92c-20.76-3.92-34.41-23.92-30.49-44.67l0,0
					c3.92-20.76,23.92-34.41,44.67-30.49l222.12,41.92C2153.92,1475.81,2167.57,1495.81,2163.65,1516.56z"/>
			</g>
			
				<linearGradient id="SVGID_00000127046363186114652590000005907941370845963696_" gradientUnits="userSpaceOnUse" x1="1868.2042" y1="5289.3911" x2="2220.1301" y2="5764.9673" gradientTransform="matrix(-0.9943 -0.107 -0.107 0.9943 1571.9513 20.535)">
				<stop  offset="0" style="stop-color:#09005D"/>
				<stop  offset="1" style="stop-color:#1A0F91"/>
			</linearGradient>
			<path style="fill:url(#SVGID_00000127046363186114652590000005907941370845963696_);" d="M2359.49,1307.92l104.55-139.42
				c0,0,167.99,178.46,200.22,404.97l-104.79,51.1C2526.94,1548.29,2467.08,1444.96,2359.49,1307.92z"/>
			
				<linearGradient id="SVGID_00000094599550173038924990000006044955616588690819_" gradientUnits="userSpaceOnUse" x1="2639.7358" y1="1672.2537" x2="3114.5171" y2="916.6156">
				<stop  offset="0" style="stop-color:#FEBBBA"/>
				<stop  offset="1" style="stop-color:#FF928E"/>
			</linearGradient>
			<path style="fill:url(#SVGID_00000094599550173038924990000006044955616588690819_);" d="M2509.28,1935.97
				c12.39-20.72,36.57-60.17,48.33-72.48c0,0-10.75-6.79-31.38-4.26c-20.62,2.53-36.78-7.53-36.16-18.75l98.41-30.19
				c4.42-9.24,23.89-61.66-29.02-185.73l104.79-51.1c12.07,84.8,5.14,176.32-36.8,267.75c0,0-32.54,101.07-69.93,123.5
				C2459.95,2023.24,2504.53,1943.92,2509.28,1935.97z"/>
		</g>
	</g>
</g>
</svg>
